SplineFontDB: 3.2
FontName: PH150
FullName: PH150
FamilyName: PH150
Weight: Regular
Copyright: Copyright (c) 2023, sed49
UComments: "2023-8-31: Created with FontForge (http://fontforge.org)"
Version: 001.000
ItalicAngle: 0
UnderlinePosition: -5
UnderlineWidth: 2
Ascent: 44
Descent: 12
InvalidEm: 0
LayerCount: 2
Layer: 0 0 "Back" 1
Layer: 1 0 "Fore" 0
XUID: [1021 454 -1839852526 15378]
StyleMap: 0x0000
FSType: 0
OS2Version: 0
OS2_WeightWidthSlopeOnly: 0
OS2_UseTypoMetrics: 1
CreationTime: 1693533866
ModificationTime: 1710637557
OS2TypoAscent: 0
OS2TypoAOffset: 1
OS2TypoDescent: 0
OS2TypoDOffset: 1
OS2TypoLinegap: 7
OS2WinAscent: 0
OS2WinAOffset: 1
OS2WinDescent: 0
OS2WinDOffset: 1
HheadAscent: 0
HheadAOffset: 1
HheadDescent: 0
HheadDOffset: 1
OS2Vendor: 'PfEd'
MarkAttachClasses: 1
DEI: 91125
Encoding: UnicodeBmp
Compacted: 1
UnicodeInterp: none
NameList: AGL For New Fonts
DisplaySize: -48
AntiAlias: 1
FitToEm: 0
WinInfo: 114 19 14
BeginPrivate: 0
EndPrivate
BeginChars: 65537 367

StartChar: exclam
Encoding: 33 33 33
Width: 36
Flags: MW
LayerCount: 2
Back
Fore
SplineSet
14 9 m 29
 22 9 l 29
 22 1 l 29
 14 1 l 29
 14 9 l 29
14 41 m 29
 22 41 l 29
 22 13 l 29
 14 13 l 29
 14 41 l 29
EndSplineSet
Validated: 1
EndChar

StartChar: quotedbl
Encoding: 34 34 34
Width: 36
Flags: MW
LayerCount: 2
Back
Fore
SplineSet
22 29 m 29
 22 41 l 29
 30 41 l 29
 30 29 l 29
 22 29 l 29
6 29 m 29
 6 41 l 29
 14 41 l 29
 14 29 l 29
 6 29 l 29
EndSplineSet
Validated: 1
EndChar

StartChar: numbersign
Encoding: 35 35 35
Width: 36
Flags: MW
LayerCount: 2
Back
Fore
SplineSet
23 21 m 29
 14 21 l 1
 13 17 l 1
 22 17 l 5
 23 21 l 29
14 25 m 25
 16 33 l 1
 20 33 l 25
 18 25 l 25
 26 25 l 25
 28 33 l 25
 32 33 l 25
 30 25 l 1
 32 25 l 1
 31 21 l 1
 27 21 l 1
 26 17 l 1
 29 17 l 1
 28 13 l 1
 22 13 l 25
 20 5 l 25
 16 5 l 25
 18 13 l 25
 10 13 l 25
 8 5 l 25
 4 5 l 25
 6 13 l 25
 4 13 l 1
 5 17 l 1
 9 17 l 1
 10 21 l 1
 7 21 l 25
 8 25 l 1
 14 25 l 25
EndSplineSet
Validated: 1
EndChar

StartChar: dollar
Encoding: 36 36 36
Width: 36
Flags: MW
LayerCount: 2
Back
Fore
SplineSet
20 21 m 29
 20 9 l 25
 28 9 l 25
 28 21 l 25
 20 21 l 29
16 25 m 25
 16 33 l 25
 8 33 l 25
 8 25 l 25
 16 25 l 25
32 29 m 25
 28 29 l 25
 28 33 l 25
 20 33 l 25
 20 25 l 25
 28 25 l 25
 32 21 l 25
 32 9 l 25
 28 5 l 25
 20 5 l 25
 20 1 l 25
 16 1 l 25
 16 5 l 25
 8 5 l 25
 4 9 l 25
 4 13 l 25
 8 13 l 25
 8 9 l 25
 16 9 l 25
 16 21 l 25
 8 21 l 25
 4 25 l 25
 4 33 l 25
 8 37 l 25
 16 37 l 25
 16 41 l 25
 20 41 l 25
 20 37 l 25
 28 37 l 25
 32 33 l 25
 32 29 l 25
EndSplineSet
Validated: 1
EndChar

StartChar: percent
Encoding: 37 37 37
Width: 36
Flags: MW
LayerCount: 2
Back
Fore
SplineSet
28 9 m 29
 24 9 l 25
 24 5 l 25
 28 5 l 25
 28 9 l 29
20 9 m 25
 22 13 l 25
 30 13 l 25
 32 9 l 25
 32 5 l 25
 30 1 l 25
 22 1 l 25
 20 5 l 25
 20 9 l 25
14 37 m 25
 10 37 l 25
 10 33 l 25
 14 33 l 25
 14 37 l 25
6 33 m 25
 6 37 l 25
 8 41 l 25
 16 41 l 25
 18 37 l 25
 18 33 l 25
 16 29 l 25
 8 29 l 25
 6 33 l 25
6 1 m 25
 24 41 l 25
 28 41 l 25
 10 1 l 25
 6 1 l 25
EndSplineSet
Validated: 1
EndChar

StartChar: ampersand
Encoding: 38 38 38
Width: 36
Flags: MW
LayerCount: 2
Back
Fore
SplineSet
18 33 m 25
 18 37 l 25
 14 37 l 25
 14 33 l 25
 18 33 l 25
22 5 m 25
 22 13 l 25
 18 21 l 25
 14 21 l 25
 10 13 l 25
 10 5 l 25
 22 5 l 25
12 29 m 1
 10 33 l 1
 10 37 l 25
 12 41 l 25
 20 41 l 25
 22 37 l 25
 22 33 l 1
 20 29 l 1
 18 29 l 5
 26 13 l 1
 28 13 l 1
 28 17 l 25
 32 17 l 25
 30 9 l 25
 26 9 l 25
 30 5 l 25
 30 1 l 25
 26 1 l 25
 26 5 l 25
 22 1 l 25
 10 1 l 25
 6 5 l 25
 6 13 l 1
 14 29 l 1
 12 29 l 1
EndSplineSet
Validated: 1
EndChar

StartChar: quotesingle
Encoding: 39 39 39
Width: 36
Flags: MW
LayerCount: 2
Back
Fore
SplineSet
12 25 m 29
 18 41 l 29
 22 41 l 29
 16 25 l 29
 12 25 l 29
EndSplineSet
Validated: 1
EndChar

StartChar: parenleft
Encoding: 40 40 40
Width: 36
Flags: MW
LayerCount: 2
Back
Fore
SplineSet
20 37 m 29
 14 25 l 25
 14 17 l 25
 20 5 l 25
 24 5 l 1
 24 1 l 25
 20 1 l 25
 16 5 l 25
 10 17 l 25
 10 25 l 25
 16 37 l 25
 20 41 l 25
 24 41 l 25
 24 37 l 1
 20 37 l 29
EndSplineSet
Validated: 1
EndChar

StartChar: parenright
Encoding: 41 41 41
Width: 36
Flags: MW
LayerCount: 2
Back
Fore
SplineSet
12 41 m 29
 16 41 l 25
 20 37 l 25
 26 25 l 25
 26 17 l 25
 20 5 l 25
 16 1 l 25
 12 1 l 25
 12 5 l 25
 16 5 l 25
 22 17 l 25
 22 25 l 25
 16 37 l 25
 12 37 l 25
 12 41 l 29
EndSplineSet
Validated: 1
EndChar

StartChar: asterisk
Encoding: 42 42 42
Width: 36
Flags: MW
LayerCount: 2
Back
Fore
SplineSet
14 21 m 29
 10 29 l 25
 14 29 l 25
 18 21 l 25
 22 29 l 25
 26 29 l 25
 22 21 l 25
 30 21 l 25
 30 17 l 25
 22 17 l 25
 26 9 l 25
 22 9 l 25
 18 17 l 25
 14 9 l 25
 10 9 l 25
 14 17 l 25
 6 17 l 25
 6 21 l 25
 14 21 l 29
EndSplineSet
Validated: 1
EndChar

StartChar: plus
Encoding: 43 43 43
Width: 36
Flags: MW
LayerCount: 2
Back
Fore
SplineSet
16 21 m 29
 16 29 l 29
 20 29 l 29
 20 21 l 29
 30 21 l 29
 30 17 l 29
 20 17 l 29
 20 9 l 29
 16 9 l 29
 16 17 l 29
 6 17 l 29
 6 21 l 29
 16 21 l 29
EndSplineSet
Validated: 1
EndChar

StartChar: comma
Encoding: 44 44 44
Width: 36
Flags: MW
LayerCount: 2
Back
Fore
SplineSet
14 9 m 29
 22 9 l 25
 22 1 l 25
 20 -7 l 25
 16 -7 l 25
 18 1 l 25
 14 1 l 25
 14 9 l 29
EndSplineSet
Validated: 1
EndChar

StartChar: hyphen
Encoding: 45 45 45
Width: 36
Flags: MW
LayerCount: 2
Back
Fore
SplineSet
6 21 m 29
 30 21 l 29
 30 17 l 29
 6 17 l 29
 6 21 l 29
EndSplineSet
Validated: 1
EndChar

StartChar: period
Encoding: 46 46 46
Width: 36
Flags: MW
LayerCount: 2
Back
Fore
SplineSet
14 1 m 29
 14 9 l 29
 22 9 l 29
 22 1 l 29
 14 1 l 29
EndSplineSet
Validated: 1
EndChar

StartChar: slash
Encoding: 47 47 47
Width: 36
Flags: MW
LayerCount: 2
Back
Fore
SplineSet
8 1 m 29
 26 41 l 25
 30 41 l 25
 12 1 l 25
 8 1 l 29
EndSplineSet
Validated: 1
EndChar

StartChar: zero
Encoding: 48 48 48
Width: 36
Flags: MW
LayerCount: 2
Back
Fore
SplineSet
24 37 m 29
 12 37 l 25
 10 33 l 25
 10 9 l 25
 12 5 l 25
 24 5 l 25
 26 9 l 25
 26 33 l 25
 24 37 l 29
12 41 m 25
 24 41 l 25
 28 37 l 25
 30 33 l 25
 30 9 l 25
 28 5 l 25
 24 1 l 25
 12 1 l 25
 8 5 l 25
 6 9 l 25
 6 33 l 25
 8 37 l 25
 12 41 l 25
EndSplineSet
Validated: 1
EndChar

StartChar: one
Encoding: 49 49 49
Width: 36
Flags: MW
LayerCount: 2
Back
Fore
SplineSet
20 1 m 5
 20 35 l 5
 15 30 l 5
 12 33 l 5
 20 41 l 29
 24 41 l 29
 24 1 l 29
 20 1 l 5
EndSplineSet
Validated: 1
EndChar

StartChar: two
Encoding: 50 50 50
Width: 36
Flags: MW
LayerCount: 2
Back
Fore
SplineSet
30 1 m 29
 6 1 l 29
 6 9 l 29
 10 17 l 29
 14 21 l 5
 20 23 l 5
 24 25 l 5
 26 29 l 5
 26 33 l 5
 24 37 l 5
 12 37 l 5
 10 33 l 29
 10 29 l 29
 6 29 l 29
 6 33 l 29
 8 37 l 29
 12 41 l 29
 24 41 l 29
 28 37 l 29
 30 33 l 29
 30 29 l 29
 28 25 l 5
 24 21 l 5
 18 19 l 5
 14 17 l 5
 10 9 l 13
 10 5 l 29
 30 5 l 29
 30 1 l 29
EndSplineSet
Validated: 1
EndChar

StartChar: three
Encoding: 51 51 51
Width: 36
Flags: MW
LayerCount: 2
Back
Fore
SplineSet
6 33 m 29
 6 37 l 29
 10 41 l 29
 26 41 l 29
 30 37 l 29
 32 33 l 29
 32 29 l 29
 30 25 l 29
 28 23 l 29
 30 21 l 29
 32 17 l 29
 32 9 l 29
 30 5 l 29
 26 1 l 29
 10 1 l 29
 6 5 l 29
 6 9 l 29
 10 9 l 29
 10 5 l 29
 26 5 l 29
 28 9 l 29
 28 17 l 29
 26 21 l 29
 14 21 l 29
 14 25 l 29
 26 25 l 29
 28 29 l 29
 28 33 l 29
 26 37 l 29
 10 37 l 29
 10 33 l 29
 6 33 l 29
EndSplineSet
Validated: 1
EndChar

StartChar: four
Encoding: 52 52 52
Width: 36
Flags: MW
LayerCount: 2
Back
Fore
SplineSet
14 21 m 5
 24 21 l 5
 24 31 l 5
 14 21 l 5
28 1 m 29
 24 1 l 29
 24 17 l 29
 4 17 l 29
 28 41 l 29
 28 21 l 29
 32 21 l 29
 32 17 l 29
 28 17 l 29
 28 1 l 29
EndSplineSet
Validated: 1
EndChar

StartChar: five
Encoding: 53 53 53
Width: 36
Flags: MW
LayerCount: 2
Back
Fore
SplineSet
6 41 m 29
 30 41 l 25
 30 37 l 25
 10 37 l 25
 10 29 l 25
 26 29 l 25
 30 25 l 25
 32 21 l 25
 32 9 l 25
 30 5 l 25
 26 1 l 25
 10 1 l 25
 6 5 l 25
 6 9 l 25
 10 9 l 25
 10 5 l 25
 26 5 l 25
 28 9 l 25
 28 21 l 25
 26 25 l 25
 6 25 l 25
 6 41 l 29
EndSplineSet
Validated: 1
EndChar

StartChar: six
Encoding: 54 54 54
Width: 36
Flags: MW
LayerCount: 2
Back
Fore
SplineSet
28 21 m 25
 8 21 l 25
 8 9 l 25
 10 5 l 25
 26 5 l 25
 28 9 l 25
 28 21 l 25
30 33 m 29
 26 33 l 25
 26 37 l 25
 10 37 l 25
 8 33 l 25
 8 25 l 25
 28 25 l 25
 32 21 l 25
 32 9 l 25
 30 5 l 25
 26 1 l 25
 10 1 l 25
 6 5 l 25
 4 9 l 25
 4 33 l 25
 6 37 l 25
 10 41 l 25
 26 41 l 25
 30 37 l 25
 30 33 l 29
EndSplineSet
Validated: 1
EndChar

StartChar: seven
Encoding: 55 55 55
Width: 36
Flags: MW
LayerCount: 2
Back
Fore
SplineSet
6 41 m 29
 30 41 l 25
 18 17 l 25
 18 1 l 25
 14 1 l 25
 14 17 l 25
 24 37 l 25
 6 37 l 25
 6 41 l 29
EndSplineSet
Validated: 1
EndChar

StartChar: eight
Encoding: 56 56 56
Width: 36
Flags: MW
LayerCount: 2
Back
Fore
SplineSet
7 23 m 29
 4 29 l 25
 4 33 l 25
 6 37 l 25
 10 41 l 25
 26 41 l 25
 30 37 l 25
 32 33 l 25
 32 29 l 25
 29 23 l 25
 32 17 l 25
 32 9 l 25
 30 5 l 25
 26 1 l 25
 10 1 l 25
 6 5 l 25
 4 9 l 25
 4 17 l 25
 7 23 l 29
10 21 m 25
 8 17 l 25
 8 9 l 25
 10 5 l 25
 26 5 l 25
 28 9 l 25
 28 17 l 25
 26 21 l 25
 10 21 l 25
10 25 m 25
 26 25 l 25
 28 29 l 25
 28 33 l 25
 26 37 l 25
 10 37 l 25
 8 33 l 25
 8 29 l 25
 10 25 l 25
EndSplineSet
Validated: 1
EndChar

StartChar: nine
Encoding: 57 57 57
Width: 36
Flags: MW
LayerCount: 2
Back
Fore
SplineSet
8 21 m 25
 28 21 l 25
 28 33 l 25
 26 37 l 25
 10 37 l 25
 8 33 l 25
 8 21 l 25
6 9 m 1
 10 9 l 25
 14 5 l 25
 26 5 l 25
 28 9 l 25
 28 17 l 25
 8 17 l 25
 4 21 l 25
 4 33 l 25
 6 37 l 25
 10 41 l 25
 26 41 l 25
 30 37 l 25
 32 33 l 25
 32 9 l 25
 30 5 l 25
 26 1 l 1
 12 1 l 1
 6 7 l 1
 6 9 l 1
EndSplineSet
Validated: 1
EndChar

StartChar: colon
Encoding: 58 58 58
Width: 36
Flags: MW
LayerCount: 2
Back
Fore
SplineSet
14 9 m 29
 22 9 l 29
 22 1 l 29
 14 1 l 29
 14 9 l 29
14 21 m 29
 14 29 l 29
 22 29 l 29
 22 21 l 29
 14 21 l 29
EndSplineSet
Validated: 1
EndChar

StartChar: semicolon
Encoding: 59 59 59
Width: 36
Flags: MW
LayerCount: 2
Back
Fore
SplineSet
14 9 m 29
 22 9 l 29
 22 1 l 29
 20 -7 l 29
 16 -7 l 29
 18 1 l 29
 14 1 l 29
 14 9 l 29
14 29 m 25
 22 29 l 25
 22 21 l 25
 14 21 l 25
 14 29 l 25
EndSplineSet
Validated: 1
EndChar

StartChar: less
Encoding: 60 60 60
Width: 36
Flags: MW
LayerCount: 2
Back
Fore
SplineSet
27 34 m 5
 12 19 l 5
 27 4 l 5
 24 1 l 5
 6 19 l 5
 24 37 l 5
 27 34 l 5
EndSplineSet
Validated: 1
EndChar

StartChar: equal
Encoding: 61 61 61
Width: 36
Flags: MW
LayerCount: 2
Back
Fore
SplineSet
6 17 m 29
 30 17 l 25
 30 13 l 25
 6 13 l 25
 6 17 l 29
6 25 m 25
 30 25 l 25
 30 21 l 25
 6 21 l 25
 6 25 l 25
EndSplineSet
Validated: 1
EndChar

StartChar: greater
Encoding: 62 62 62
Width: 36
Flags: MW
LayerCount: 2
Back
Fore
SplineSet
12 37 m 5
 30 19 l 29
 12 1 l 5
 9 4 l 5
 24 19 l 5
 9 34 l 5
 12 37 l 5
EndSplineSet
Validated: 1
EndChar

StartChar: question
Encoding: 63 63 63
Width: 36
Flags: MW
LayerCount: 2
Back
Fore
SplineSet
16 9 m 5
 16 15 l 5
 20 17 l 5
 24 21 l 5
 26 25 l 29
 26 33 l 5
 22 37 l 5
 14 37 l 5
 10 33 l 5
 10 25 l 29
 6 25 l 29
 6 33 l 29
 8 37 l 29
 12 41 l 29
 24 41 l 29
 28 37 l 29
 30 33 l 29
 30 25 l 5
 28 19 l 5
 24 15 l 5
 20 13 l 5
 20 9 l 29
 16 9 l 5
16 5 m 29
 20 5 l 29
 20 1 l 29
 16 1 l 29
 16 5 l 29
EndSplineSet
Validated: 1
EndChar

StartChar: at
Encoding: 64 64 64
Width: 36
Flags: MW
LayerCount: 2
Back
Fore
SplineSet
20 17 m 25
 20 25 l 25
 16 25 l 25
 16 17 l 25
 20 17 l 25
20 13 m 5
 16 13 l 1
 12 17 l 25
 12 25 l 25
 16 29 l 25
 20 29 l 25
 24 25 l 25
 24 21 l 25
 28 17 l 25
 28 29 l 25
 24 37 l 25
 12 37 l 25
 8 29 l 25
 8 13 l 25
 12 5 l 25
 28 5 l 25
 28 1 l 25
 12 1 l 25
 8 5 l 25
 4 13 l 25
 4 29 l 25
 8 37 l 25
 12 41 l 25
 24 41 l 25
 28 37 l 25
 32 29 l 25
 32 17 l 25
 28 13 l 1
 24 17 l 1
 20 13 l 5
EndSplineSet
Validated: 1
EndChar

StartChar: A
Encoding: 65 65 65
Width: 36
Flags: MW
LayerCount: 2
Back
Fore
SplineSet
28 17 m 29
 28 25 l 29
 22 37 l 29
 14 37 l 29
 8 25 l 29
 8 17 l 29
 28 17 l 29
4 1 m 29
 4 25 l 29
 10 37 l 29
 14 41 l 29
 22 41 l 29
 26 37 l 29
 32 25 l 29
 32 1 l 29
 28 1 l 29
 28 13 l 29
 8 13 l 29
 8 1 l 29
 4 1 l 29
EndSplineSet
Validated: 1
EndChar

StartChar: B
Encoding: 66 66 66
Width: 36
Flags: MW
LayerCount: 2
Back
Fore
SplineSet
28 25 m 25
 28 37 l 25
 8 37 l 25
 8 25 l 25
 28 25 l 25
28 5 m 25
 28 21 l 25
 8 21 l 25
 8 5 l 25
 28 5 l 25
4 1 m 25
 4 41 l 25
 28 41 l 25
 32 37 l 25
 32 25 l 1
 30 23 l 29
 32 21 l 1
 32 5 l 25
 28 1 l 25
 4 1 l 25
EndSplineSet
Validated: 1
EndChar

StartChar: C
Encoding: 67 67 67
Width: 36
Flags: MW
LayerCount: 2
Back
Fore
SplineSet
30 29 m 29
 26 29 l 29
 26 33 l 29
 24 37 l 29
 12 37 l 29
 8 29 l 29
 8 13 l 29
 12 5 l 29
 24 5 l 5
 26 9 l 29
 26 13 l 5
 30 13 l 29
 30 9 l 29
 28 5 l 29
 24 1 l 29
 12 1 l 29
 8 5 l 29
 4 13 l 29
 4 29 l 29
 8 37 l 29
 12 41 l 29
 24 41 l 29
 28 37 l 29
 30 33 l 29
 30 29 l 29
EndSplineSet
Validated: 1
EndChar

StartChar: D
Encoding: 68 68 68
Width: 36
Flags: MW
LayerCount: 2
Back
Fore
SplineSet
8 5 m 29
 24 5 l 29
 28 9 l 29
 28 33 l 29
 24 37 l 29
 8 37 l 29
 8 5 l 29
4 1 m 29
 4 41 l 29
 24 41 l 29
 32 33 l 29
 32 9 l 29
 24 1 l 29
 4 1 l 29
EndSplineSet
Validated: 1
EndChar

StartChar: E
Encoding: 69 69 69
Width: 36
Flags: MW
LayerCount: 2
Back
Fore
SplineSet
4 1 m 29
 4 41 l 29
 32 41 l 29
 32 37 l 29
 8 37 l 29
 8 25 l 29
 24 25 l 29
 24 21 l 29
 8 21 l 29
 8 5 l 29
 32 5 l 29
 32 1 l 29
 4 1 l 29
EndSplineSet
Validated: 1
EndChar

StartChar: F
Encoding: 70 70 70
Width: 36
Flags: MW
LayerCount: 2
Back
Fore
SplineSet
4 1 m 25
 4 41 l 25
 32 41 l 25
 32 37 l 25
 8 37 l 25
 8 25 l 25
 24 25 l 25
 24 21 l 29
 8 21 l 25
 8 1 l 25
 4 1 l 25
EndSplineSet
Validated: 1
EndChar

StartChar: G
Encoding: 71 71 71
Width: 36
Flags: MW
LayerCount: 2
Back
Fore
SplineSet
20 21 m 29
 32 21 l 29
 32 13 l 29
 28 5 l 29
 24 1 l 29
 12 1 l 29
 8 5 l 29
 4 13 l 29
 4 29 l 29
 8 37 l 29
 12 41 l 29
 24 41 l 29
 28 37 l 29
 30 33 l 29
 30 29 l 29
 26 29 l 29
 26 33 l 29
 24 37 l 29
 12 37 l 29
 8 29 l 29
 8 13 l 29
 12 5 l 29
 24 5 l 29
 28 13 l 29
 28 17 l 29
 20 17 l 29
 20 21 l 29
EndSplineSet
Validated: 1
EndChar

StartChar: H
Encoding: 72 72 72
Width: 36
Flags: MW
LayerCount: 2
Back
Fore
SplineSet
4 41 m 29
 8 41 l 29
 8 25 l 29
 28 25 l 29
 28 41 l 29
 32 41 l 29
 32 1 l 29
 28 1 l 29
 28 21 l 29
 8 21 l 29
 8 1 l 29
 4 1 l 29
 4 41 l 29
EndSplineSet
Validated: 1
EndChar

StartChar: I
Encoding: 73 73 73
Width: 36
Flags: MW
LayerCount: 2
Back
Fore
SplineSet
8 41 m 29
 28 41 l 29
 28 37 l 29
 20 37 l 29
 20 5 l 29
 28 5 l 29
 28 1 l 29
 8 1 l 29
 8 5 l 29
 16 5 l 29
 16 37 l 29
 8 37 l 29
 8 41 l 29
EndSplineSet
Validated: 1
EndChar

StartChar: J
Encoding: 74 74 74
Width: 36
Flags: MW
LayerCount: 2
Back
Fore
SplineSet
26 41 m 29
 30 41 l 25
 30 9 l 25
 28 5 l 25
 24 1 l 25
 12 1 l 25
 8 5 l 25
 6 9 l 25
 6 13 l 25
 10 13 l 25
 10 9 l 25
 12 5 l 25
 24 5 l 25
 26 9 l 25
 26 41 l 29
EndSplineSet
Validated: 1
EndChar

StartChar: K
Encoding: 75 75 75
Width: 36
Flags: MW
LayerCount: 2
Back
Fore
SplineSet
4 41 m 29
 8 41 l 29
 8 25 l 5
 24 41 l 5
 27 38 l 5
 12 23 l 5
 31 4 l 5
 28 1 l 5
 8 21 l 29
 8 1 l 29
 4 1 l 29
 4 41 l 29
EndSplineSet
Validated: 1
EndChar

StartChar: L
Encoding: 76 76 76
Width: 36
Flags: MW
LayerCount: 2
Back
Fore
SplineSet
4 41 m 29
 8 41 l 29
 8 5 l 29
 32 5 l 29
 32 1 l 29
 4 1 l 29
 4 41 l 29
EndSplineSet
Validated: 1
EndChar

StartChar: M
Encoding: 77 77 77
Width: 36
Flags: MW
LayerCount: 2
Back
Fore
SplineSet
4 1 m 29
 4 41 l 29
 8 41 l 29
 18 31 l 29
 28 41 l 29
 32 41 l 29
 32 1 l 29
 28 1 l 29
 28 35 l 29
 20 27 l 29
 20 21 l 29
 16 21 l 29
 16 27 l 29
 8 35 l 29
 8 1 l 29
 4 1 l 29
EndSplineSet
Validated: 1
EndChar

StartChar: N
Encoding: 78 78 78
Width: 36
Flags: MW
LayerCount: 2
Back
Fore
SplineSet
4 1 m 29
 4 41 l 29
 8 41 l 29
 12 33 l 29
 28 17 l 29
 28 41 l 29
 32 41 l 29
 32 1 l 29
 28 1 l 29
 24 13 l 29
 8 29 l 29
 8 1 l 29
 4 1 l 29
EndSplineSet
Validated: 1
EndChar

StartChar: O
Encoding: 79 79 79
Width: 36
Flags: MW
LayerCount: 2
Back
Fore
SplineSet
28 37 m 29
 8 37 l 29
 8 5 l 29
 28 5 l 29
 28 37 l 29
4 37 m 29
 8 41 l 29
 28 41 l 29
 32 37 l 29
 32 5 l 29
 28 1 l 29
 8 1 l 29
 4 5 l 29
 4 37 l 29
EndSplineSet
Validated: 1
EndChar

StartChar: P
Encoding: 80 80 80
Width: 36
Flags: MW
LayerCount: 2
Back
Fore
SplineSet
8 25 m 29
 28 25 l 29
 28 37 l 29
 8 37 l 29
 8 25 l 29
4 1 m 29
 4 41 l 29
 28 41 l 29
 32 37 l 29
 32 25 l 29
 28 21 l 29
 8 21 l 29
 8 1 l 29
 4 1 l 29
EndSplineSet
Validated: 1
EndChar

StartChar: Q
Encoding: 81 81 81
Width: 36
Flags: MW
LayerCount: 2
Back
Fore
SplineSet
28 5 m 1
 28 37 l 1
 8 37 l 25
 8 5 l 1
 20 5 l 1
 16 9 l 1
 16 13 l 1
 20 13 l 5
 28 5 l 1
4 5 m 25
 4 37 l 25
 8 41 l 25
 28 41 l 25
 32 37 l 25
 32 5 l 25
 30 3 l 25
 32 1 l 25
 32 -3 l 1
 28 -3 l 1
 24 1 l 1
 8 1 l 1
 4 5 l 25
EndSplineSet
Validated: 1
EndChar

StartChar: R
Encoding: 82 82 82
Width: 36
Flags: MW
LayerCount: 2
Back
Fore
SplineSet
8 25 m 29
 28 25 l 29
 28 37 l 29
 8 37 l 29
 8 25 l 29
4 1 m 29
 4 41 l 29
 28 41 l 29
 32 37 l 29
 32 25 l 29
 28 21 l 29
 16 21 l 29
 32 5 l 29
 32 1 l 29
 28 1 l 29
 8 21 l 29
 8 1 l 29
 4 1 l 29
EndSplineSet
Validated: 1
EndChar

StartChar: S
Encoding: 83 83 83
Width: 36
Flags: MW
LayerCount: 2
Back
Fore
SplineSet
30 33 m 29
 26 33 l 29
 26 37 l 29
 10 37 l 29
 8 33 l 29
 8 29 l 29
 10 25 l 29
 26 25 l 29
 30 21 l 29
 32 17 l 29
 32 9 l 29
 30 5 l 29
 26 1 l 29
 10 1 l 29
 6 5 l 29
 6 9 l 29
 10 9 l 29
 10 5 l 29
 26 5 l 29
 28 9 l 29
 28 17 l 29
 26 21 l 29
 10 21 l 29
 6 25 l 29
 4 29 l 29
 4 33 l 29
 6 37 l 29
 10 41 l 29
 26 41 l 29
 30 37 l 29
 30 33 l 29
EndSplineSet
Validated: 1
EndChar

StartChar: T
Encoding: 84 84 84
Width: 36
Flags: MW
LayerCount: 2
Back
Fore
SplineSet
16 1 m 29
 16 37 l 29
 4 37 l 29
 4 41 l 29
 32 41 l 29
 32 37 l 29
 20 37 l 29
 20 1 l 29
 16 1 l 29
EndSplineSet
Validated: 1
EndChar

StartChar: U
Encoding: 85 85 85
Width: 36
Flags: MW
LayerCount: 2
Back
Fore
SplineSet
4 41 m 29
 8 41 l 29
 8 9 l 29
 10 5 l 29
 26 5 l 29
 28 9 l 29
 28 41 l 29
 32 41 l 29
 32 9 l 29
 30 5 l 29
 26 1 l 29
 10 1 l 29
 6 5 l 29
 4 9 l 29
 4 41 l 29
EndSplineSet
Validated: 1
EndChar

StartChar: V
Encoding: 86 86 86
Width: 36
Flags: MW
LayerCount: 2
Back
Fore
SplineSet
8 41 m 29
 8 25 l 25
 18 5 l 25
 28 25 l 25
 28 41 l 25
 32 41 l 25
 32 25 l 25
 20 1 l 25
 16 1 l 25
 4 25 l 25
 4 41 l 25
 8 41 l 29
EndSplineSet
Validated: 1
EndChar

StartChar: W
Encoding: 87 87 87
Width: 36
Flags: MW
LayerCount: 2
Back
Fore
SplineSet
4 41 m 29
 8 41 l 29
 8 7 l 29
 16 15 l 29
 16 21 l 29
 20 21 l 29
 20 15 l 29
 28 7 l 29
 28 41 l 29
 32 41 l 29
 32 1 l 29
 28 1 l 29
 18 11 l 29
 8 1 l 29
 4 1 l 29
 4 41 l 29
EndSplineSet
Validated: 1
EndChar

StartChar: X
Encoding: 88 88 88
Width: 36
Flags: MW
LayerCount: 2
Back
Fore
SplineSet
14 23 m 1
 6 39 l 1
 10 41 l 1
 18 25 l 1
 26 41 l 1
 30 39 l 1
 22 23 l 5
 32 3 l 1
 28 1 l 1
 18 21 l 9
 8 1 l 1
 4 3 l 1
 14 23 l 1
EndSplineSet
Validated: 1
EndChar

StartChar: Y
Encoding: 89 89 89
Width: 36
Flags: MW
LayerCount: 2
Back
Fore
SplineSet
10 41 m 29
 18 25 l 29
 26 41 l 29
 30 41 l 29
 20 21 l 29
 20 1 l 29
 16 1 l 29
 16 21 l 29
 6 41 l 29
 10 41 l 29
EndSplineSet
Validated: 1
EndChar

StartChar: Z
Encoding: 90 90 90
Width: 36
Flags: MW
LayerCount: 2
Back
Fore
SplineSet
4 41 m 29
 28 41 l 29
 12 5 l 29
 30 5 l 29
 30 1 l 29
 6 1 l 29
 22 37 l 29
 4 37 l 29
 4 41 l 29
EndSplineSet
Validated: 1
EndChar

StartChar: bracketleft
Encoding: 91 91 91
Width: 36
Flags: MW
LayerCount: 2
Back
Fore
SplineSet
24 41 m 29
 24 37 l 25
 16 37 l 25
 16 5 l 25
 24 5 l 25
 24 1 l 25
 12 1 l 25
 12 41 l 25
 24 41 l 29
EndSplineSet
Validated: 1
EndChar

StartChar: backslash
Encoding: 92 92 92
Width: 36
Flags: MW
LayerCount: 2
Back
Fore
SplineSet
6 41 m 29
 10 41 l 25
 28 1 l 25
 24 1 l 25
 6 41 l 29
EndSplineSet
Validated: 1
EndChar

StartChar: bracketright
Encoding: 93 93 93
Width: 36
Flags: MW
LayerCount: 2
Back
Fore
SplineSet
12 41 m 29
 24 41 l 25
 24 1 l 25
 12 1 l 25
 12 5 l 25
 20 5 l 25
 20 37 l 25
 12 37 l 25
 12 41 l 29
EndSplineSet
Validated: 1
EndChar

StartChar: asciicircum
Encoding: 94 94 94
Width: 36
Flags: MW
LayerCount: 2
Back
Fore
SplineSet
8 21 m 29
 18 41 l 29
 28 21 l 29
 24 21 l 29
 18 33 l 29
 12 21 l 29
 8 21 l 29
EndSplineSet
Validated: 1
EndChar

StartChar: underscore
Encoding: 95 95 95
Width: 36
Flags: MW
LayerCount: 2
Back
Fore
SplineSet
4 -3 m 29
 32 -3 l 25
 32 -7 l 25
 4 -7 l 25
 4 -3 l 29
EndSplineSet
Validated: 1
EndChar

StartChar: grave
Encoding: 96 96 96
Width: 36
Flags: MW
LayerCount: 2
Back
Fore
SplineSet
16 41 m 29
 22 25 l 25
 18 25 l 25
 12 41 l 25
 16 41 l 29
EndSplineSet
Validated: 1
EndChar

StartChar: a
Encoding: 97 97 97
Width: 36
Flags: MW
LayerCount: 2
Back
Fore
SplineSet
26 13 m 29
 10 13 l 29
 10 5 l 29
 26 5 l 29
 26 13 l 29
8 25 m 29
 28 25 l 29
 30 21 l 29
 30 5 l 29
 32 5 l 29
 32 1 l 29
 8 1 l 29
 6 5 l 29
 6 13 l 29
 10 17 l 29
 26 17 l 29
 26 21 l 29
 8 21 l 29
 8 25 l 29
EndSplineSet
Validated: 1
EndChar

StartChar: b
Encoding: 98 98 98
Width: 36
Flags: MW
LayerCount: 2
Back
Fore
SplineSet
26 21 m 29
 10 21 l 25
 10 5 l 25
 26 5 l 25
 26 21 l 29
6 41 m 25
 10 41 l 25
 10 25 l 25
 26 25 l 25
 30 21 l 25
 30 5 l 25
 26 1 l 25
 6 1 l 25
 6 41 l 25
EndSplineSet
Validated: 1
EndChar

StartChar: c
Encoding: 99 99 99
Width: 36
Flags: MW
LayerCount: 2
Back
Fore
SplineSet
30 17 m 29
 26 17 l 29
 26 21 l 29
 10 21 l 29
 10 5 l 29
 26 5 l 29
 26 9 l 29
 30 9 l 29
 30 5 l 29
 26 1 l 29
 10 1 l 29
 6 5 l 29
 6 21 l 29
 10 25 l 29
 26 25 l 29
 30 21 l 29
 30 17 l 29
EndSplineSet
Validated: 1
EndChar

StartChar: d
Encoding: 100 100 100
Width: 36
Flags: MW
LayerCount: 2
Back
Fore
SplineSet
26 21 m 29
 10 21 l 29
 10 5 l 29
 26 5 l 29
 26 21 l 29
26 25 m 29
 26 41 l 29
 30 41 l 29
 30 5 l 29
 32 5 l 29
 32 1 l 29
 8 1 l 29
 6 5 l 29
 6 21 l 29
 10 25 l 29
 26 25 l 29
EndSplineSet
Validated: 1
EndChar

StartChar: e
Encoding: 101 101 101
Width: 36
Flags: MW
LayerCount: 2
Back
Fore
SplineSet
10 21 m 29
 10 17 l 29
 26 17 l 29
 26 21 l 29
 10 21 l 29
6 21 m 29
 10 25 l 29
 26 25 l 29
 30 21 l 29
 30 13 l 29
 10 13 l 29
 10 5 l 29
 30 5 l 29
 30 1 l 29
 10 1 l 29
 6 5 l 29
 6 21 l 29
EndSplineSet
Validated: 1
EndChar

StartChar: f
Encoding: 102 102 102
Width: 36
Flags: HMW
LayerCount: 2
Back
Fore
SplineSet
14 1 m 29
 14 21 l 29
 6 21 l 29
 6 25 l 29
 14 25 l 29
 14 37 l 29
 18 41 l 29
 26 41 l 29
 30 37 l 29
 30 33 l 29
 26 33 l 29
 26 37 l 29
 18 37 l 29
 18 25 l 29
 26 25 l 29
 26 21 l 29
 18 21 l 29
 18 1 l 29
 14 1 l 29
EndSplineSet
Validated: 1
EndChar

StartChar: g
Encoding: 103 103 103
Width: 36
Flags: MW
LayerCount: 2
Back
Fore
SplineSet
10 9 m 29
 26 9 l 29
 26 21 l 29
 10 21 l 29
 10 9 l 29
6 1 m 5
 8 1 l 5
 12 -3 l 5
 26 -3 l 5
 26 5 l 29
 10 5 l 29
 6 9 l 29
 6 21 l 29
 10 25 l 29
 26 25 l 29
 30 21 l 29
 30 -3 l 29
 26 -7 l 29
 10 -7 l 29
 6 -3 l 29
 6 1 l 5
EndSplineSet
Validated: 1
EndChar

StartChar: h
Encoding: 104 104 104
Width: 36
Flags: MW
LayerCount: 2
Back
Fore
SplineSet
6 41 m 29
 10 41 l 29
 10 25 l 29
 26 25 l 29
 30 21 l 29
 30 1 l 29
 26 1 l 29
 26 21 l 29
 10 21 l 29
 10 1 l 29
 6 1 l 29
 6 41 l 29
EndSplineSet
Validated: 1
EndChar

StartChar: i
Encoding: 105 105 105
Width: 36
Flags: MW
LayerCount: 2
Back
Fore
SplineSet
16 29 m 29
 16 33 l 29
 20 33 l 29
 20 29 l 29
 16 29 l 29
12 25 m 29
 20 25 l 29
 20 5 l 29
 26 5 l 29
 26 1 l 29
 10 1 l 29
 10 5 l 29
 16 5 l 29
 16 21 l 29
 12 21 l 29
 12 25 l 29
EndSplineSet
Validated: 1
EndChar

StartChar: j
Encoding: 106 106 106
Width: 36
Flags: MW
LayerCount: 2
Back
Fore
SplineSet
18 25 m 29
 26 25 l 29
 26 1 l 29
 24 -3 l 29
 20 -7 l 29
 12 -7 l 29
 8 -3 l 29
 8 1 l 29
 12 1 l 29
 12 -3 l 29
 20 -3 l 29
 22 1 l 29
 22 21 l 29
 18 21 l 29
 18 25 l 29
22 29 m 25
 22 33 l 25
 26 33 l 25
 26 29 l 25
 22 29 l 25
EndSplineSet
Validated: 1
EndChar

StartChar: k
Encoding: 107 107 107
Width: 36
Flags: MW
LayerCount: 2
Back
Fore
SplineSet
8 1 m 29
 8 41 l 29
 12 41 l 29
 12 17 l 29
 24 29 l 29
 27 26 l 29
 16 15 l 29
 27 4 l 29
 24 1 l 29
 12 13 l 29
 12 1 l 29
 8 1 l 29
EndSplineSet
Validated: 1
EndChar

StartChar: l
Encoding: 108 108 108
Width: 36
Flags: MW
LayerCount: 2
Back
Fore
SplineSet
12 41 m 29
 20 41 l 29
 20 5 l 29
 28 5 l 29
 28 1 l 29
 8 1 l 29
 8 5 l 29
 16 5 l 29
 16 37 l 29
 12 37 l 29
 12 41 l 29
EndSplineSet
Validated: 1
EndChar

StartChar: m
Encoding: 109 109 109
Width: 36
Flags: MW
LayerCount: 2
Back
Fore
SplineSet
4 1 m 29
 4 25 l 25
 28 25 l 25
 32 21 l 25
 32 1 l 25
 28 1 l 25
 28 21 l 25
 20 21 l 25
 20 1 l 25
 16 1 l 25
 16 21 l 25
 8 21 l 25
 8 1 l 25
 4 1 l 29
EndSplineSet
Validated: 1
EndChar

StartChar: n
Encoding: 110 110 110
Width: 36
Flags: MW
LayerCount: 2
Back
Fore
SplineSet
4 25 m 29
 28 25 l 29
 30 21 l 29
 30 1 l 29
 26 1 l 29
 26 21 l 29
 10 21 l 29
 10 1 l 29
 6 1 l 29
 6 21 l 29
 4 21 l 29
 4 25 l 29
EndSplineSet
Validated: 1
EndChar

StartChar: o
Encoding: 111 111 111
Width: 36
Flags: MW
LayerCount: 2
Back
Fore
SplineSet
26 21 m 29
 10 21 l 29
 10 5 l 29
 26 5 l 29
 26 21 l 29
6 21 m 29
 10 25 l 29
 26 25 l 29
 30 21 l 29
 30 5 l 29
 26 1 l 29
 10 1 l 29
 6 5 l 29
 6 21 l 29
EndSplineSet
Validated: 1
EndChar

StartChar: p
Encoding: 112 112 112
Width: 36
Flags: MW
LayerCount: 2
Back
Fore
SplineSet
10 9 m 29
 26 9 l 29
 26 21 l 29
 10 21 l 29
 10 9 l 29
6 -7 m 29
 6 25 l 29
 26 25 l 29
 30 21 l 29
 30 9 l 29
 26 5 l 29
 10 5 l 29
 10 -7 l 29
 6 -7 l 29
EndSplineSet
Validated: 1
EndChar

StartChar: q
Encoding: 113 113 113
Width: 36
Flags: MW
LayerCount: 2
Back
Fore
SplineSet
10 21 m 29
 10 9 l 25
 26 9 l 25
 26 21 l 25
 10 21 l 29
6 21 m 25
 10 25 l 25
 30 25 l 25
 30 -7 l 25
 26 -7 l 25
 26 5 l 25
 10 5 l 25
 6 9 l 25
 6 21 l 25
EndSplineSet
Validated: 1
EndChar

StartChar: r
Encoding: 114 114 114
Width: 36
Flags: MW
LayerCount: 2
Back
Fore
SplineSet
6 1 m 29
 6 25 l 29
 10 25 l 29
 10 21 l 29
 14 25 l 29
 26 25 l 29
 30 21 l 29
 30 17 l 29
 26 17 l 29
 26 21 l 29
 14 21 l 29
 10 17 l 29
 10 1 l 29
 6 1 l 29
EndSplineSet
Validated: 1
EndChar

StartChar: s
Encoding: 115 115 115
Width: 36
Flags: MW
LayerCount: 2
Back
Fore
SplineSet
28 25 m 25
 28 21 l 25
 10 21 l 25
 10 17 l 29
 28 17 l 29
 30 13 l 29
 30 5 l 29
 26 1 l 29
 6 1 l 29
 6 5 l 29
 26 5 l 29
 26 13 l 29
 8 13 l 29
 6 17 l 29
 6 21 l 25
 8 25 l 25
 28 25 l 25
EndSplineSet
Validated: 1
EndChar

StartChar: t
Encoding: 116 116 116
Width: 36
Flags: MW
LayerCount: 2
Back
Fore
SplineSet
14 41 m 29
 18 41 l 29
 18 29 l 29
 26 29 l 29
 26 25 l 29
 18 25 l 29
 18 5 l 29
 26 5 l 29
 26 9 l 29
 30 9 l 29
 30 5 l 29
 26 1 l 29
 18 1 l 29
 14 5 l 29
 14 25 l 29
 6 25 l 29
 6 29 l 29
 14 29 l 29
 14 41 l 29
EndSplineSet
Validated: 1
EndChar

StartChar: u
Encoding: 117 117 117
Width: 36
Flags: MW
LayerCount: 2
Back
Fore
SplineSet
6 25 m 29
 10 25 l 29
 10 5 l 29
 26 5 l 29
 26 25 l 29
 30 25 l 29
 30 5 l 29
 32 5 l 29
 32 1 l 29
 8 1 l 29
 6 5 l 29
 6 25 l 29
EndSplineSet
Validated: 1
EndChar

StartChar: v
Encoding: 118 118 118
Width: 36
Flags: MW
LayerCount: 2
Back
Fore
SplineSet
10 25 m 29
 18 9 l 25
 26 25 l 25
 30 25 l 25
 18 1 l 25
 6 25 l 25
 10 25 l 29
EndSplineSet
Validated: 1
EndChar

StartChar: w
Encoding: 119 119 119
Width: 36
Flags: MW
LayerCount: 2
Back
Fore
SplineSet
4 25 m 29
 8 25 l 29
 8 13 l 29
 12 5 l 29
 16 13 l 29
 16 17 l 29
 20 17 l 29
 20 13 l 29
 24 5 l 29
 28 13 l 29
 28 25 l 29
 32 25 l 29
 32 13 l 29
 26 1 l 29
 22 1 l 29
 18 9 l 29
 14 1 l 29
 10 1 l 29
 4 13 l 29
 4 25 l 29
EndSplineSet
Validated: 1
EndChar

StartChar: x
Encoding: 120 120 120
Width: 36
Flags: MW
LayerCount: 2
Back
Fore
SplineSet
6 22 m 1
 9 25 l 1
 18 16 l 1
 27 25 l 1
 30 22 l 1
 21 13 l 1
 30 4 l 1
 27 1 l 1
 18 10 l 1
 9 1 l 1
 6 4 l 1
 15 13 l 1
 6 22 l 1
EndSplineSet
Validated: 1
EndChar

StartChar: y
Encoding: 121 121 121
Width: 36
Flags: MW
LayerCount: 2
Back
Fore
SplineSet
8 25 m 29
 12 25 l 29
 18 13 l 29
 24 25 l 29
 28 25 l 29
 12 -7 l 29
 6 -7 l 29
 6 -3 l 29
 10 -3 l 5
 16 9 l 29
 8 25 l 29
EndSplineSet
Validated: 1
EndChar

StartChar: z
Encoding: 122 122 122
Width: 36
Flags: MW
LayerCount: 2
Back
Fore
SplineSet
22 21 m 29
 6 21 l 29
 6 25 l 29
 30 25 l 5
 14 5 l 29
 30 5 l 5
 30 1 l 29
 6 1 l 29
 22 21 l 29
EndSplineSet
Validated: 1
EndChar

StartChar: braceleft
Encoding: 123 123 123
Width: 36
Flags: MW
LayerCount: 2
Back
Fore
SplineSet
28 41 m 29
 28 37 l 25
 18 37 l 25
 18 25 l 25
 20 25 l 25
 20 17 l 25
 18 17 l 25
 18 5 l 25
 28 5 l 25
 28 1 l 25
 16 1 l 25
 14 5 l 25
 14 17 l 25
 8 17 l 25
 8 25 l 25
 14 25 l 25
 14 37 l 25
 16 41 l 25
 28 41 l 29
EndSplineSet
Validated: 1
EndChar

StartChar: bar
Encoding: 124 124 124
Width: 36
Flags: MW
LayerCount: 2
Back
Fore
SplineSet
14 41 m 29
 22 41 l 25
 22 1 l 25
 14 1 l 25
 14 41 l 29
EndSplineSet
Validated: 1
EndChar

StartChar: braceright
Encoding: 125 125 125
Width: 36
Flags: MW
LayerCount: 2
Back
Fore
SplineSet
8 41 m 29
 20 41 l 25
 22 37 l 25
 22 25 l 25
 28 25 l 25
 28 17 l 25
 22 17 l 25
 22 5 l 25
 20 1 l 25
 8 1 l 25
 8 5 l 25
 18 5 l 25
 18 17 l 25
 16 17 l 25
 16 25 l 25
 18 25 l 25
 18 37 l 25
 8 37 l 25
 8 41 l 29
EndSplineSet
Validated: 1
EndChar

StartChar: asciitilde
Encoding: 126 126 126
Width: 36
Flags: MW
LayerCount: 2
Back
Fore
SplineSet
4 17 m 29
 4 21 l 29
 8 25 l 29
 16 25 l 29
 20 21 l 29
 20 17 l 29
 28 17 l 29
 28 21 l 29
 32 21 l 29
 32 17 l 29
 28 13 l 29
 20 13 l 29
 16 17 l 29
 16 21 l 29
 8 21 l 29
 8 17 l 29
 4 17 l 29
EndSplineSet
Validated: 1
EndChar

StartChar: uni007F
Encoding: 127 127 127
Width: 36
Flags: MW
LayerCount: 2
Back
Fore
SplineSet
10 5 m 29
 26 5 l 25
 18 21 l 25
 10 5 l 29
6 1 m 25
 6 5 l 25
 18 29 l 25
 30 5 l 25
 30 1 l 25
 6 1 l 25
EndSplineSet
Validated: 1
EndChar

StartChar: exclamdown
Encoding: 161 161 130
Width: 36
Flags: HMW
LayerCount: 2
Back
Fore
SplineSet
14 25 m 25
 14 33 l 25
 22 33 l 25
 22 25 l 25
 14 25 l 25
14 -7 m 25
 14 21 l 25
 22 21 l 25
 22 -7 l 25
 14 -7 l 25
EndSplineSet
Validated: 1
EndChar

StartChar: cent
Encoding: 162 162 131
Width: 36
Flags: MW
LayerCount: 2
Back
Fore
SplineSet
10 5 m 25
 16 5 l 25
 16 21 l 25
 10 21 l 25
 10 5 l 25
10 1 m 9
 6 5 l 25
 6 21 l 25
 10 25 l 25
 16 25 l 25
 16 29 l 25
 20 29 l 25
 20 25 l 25
 26 25 l 25
 30 21 l 25
 30 17 l 25
 26 17 l 25
 26 21 l 25
 20 21 l 25
 20 5 l 25
 26 5 l 25
 26 9 l 25
 30 9 l 25
 30 5 l 25
 26 1 l 25
 20 1 l 25
 20 -3 l 25
 16 -3 l 25
 16 1 l 25
 10 1 l 9
EndSplineSet
Validated: 1
EndChar

StartChar: sterling
Encoding: 163 163 132
Width: 36
Flags: MW
LayerCount: 2
Back
Fore
SplineSet
14 13 m 1
 14 21 l 9
 6 21 l 25
 6 25 l 25
 14 25 l 25
 14 37 l 25
 18 41 l 25
 26 41 l 25
 30 37 l 25
 30 33 l 25
 26 33 l 25
 26 37 l 25
 18 37 l 25
 18 25 l 25
 26 25 l 25
 26 21 l 25
 18 21 l 17
 18 13 l 1
 10 5 l 9
 32 5 l 25
 32 1 l 1
 6 1 l 25
 6 5 l 25
 14 13 l 1
EndSplineSet
Validated: 1
EndChar

StartChar: currency
Encoding: 164 164 133
Width: 36
Flags: MW
LayerCount: 2
Back
Fore
SplineSet
22 21 m 25
 14 21 l 25
 14 13 l 25
 22 13 l 25
 22 21 l 25
22 9 m 29
 14 9 l 25
 10 5 l 25
 6 9 l 25
 10 13 l 25
 10 21 l 25
 6 25 l 25
 10 29 l 25
 14 25 l 25
 22 25 l 25
 26 29 l 25
 30 25 l 25
 26 21 l 25
 26 13 l 25
 30 9 l 25
 26 5 l 25
 22 9 l 29
EndSplineSet
Validated: 1
EndChar

StartChar: yen
Encoding: 165 165 134
Width: 36
Flags: MW
LayerCount: 2
Back
Fore
SplineSet
20 1 m 25
 16 1 l 25
 16 9 l 25
 4 9 l 25
 4 13 l 25
 16 13 l 25
 16 21 l 25
 4 21 l 25
 4 25 l 25
 14 25 l 25
 6 41 l 25
 10 41 l 25
 18 25 l 25
 26 41 l 25
 30 41 l 25
 22 25 l 25
 32 25 l 25
 32 21 l 25
 20 21 l 25
 20 13 l 25
 32 13 l 25
 32 9 l 25
 20 9 l 25
 20 1 l 25
EndSplineSet
Validated: 1
EndChar

StartChar: brokenbar
Encoding: 166 166 135
Width: 36
Flags: MW
LayerCount: 2
Back
Fore
SplineSet
16 41 m 25
 20 41 l 25
 20 25 l 25
 16 25 l 25
 16 41 l 25
16 17 m 25
 20 17 l 25
 20 1 l 25
 16 1 l 25
 16 17 l 25
EndSplineSet
Validated: 1
EndChar

StartChar: section
Encoding: 167 167 136
Width: 36
Flags: MW
LayerCount: 2
Back
Fore
SplineSet
20 25 m 25
 16 25 l 25
 16 21 l 25
 20 21 l 25
 20 25 l 25
30 21 m 25
 32 17 l 25
 32 9 l 25
 30 5 l 25
 26 1 l 25
 10 1 l 25
 6 5 l 25
 6 9 l 25
 10 9 l 25
 10 5 l 25
 26 5 l 25
 28 9 l 25
 28 17 l 25
 26 21 l 25
 24 21 l 25
 20 17 l 25
 16 17 l 25
 12 21 l 25
 10 21 l 25
 6 25 l 25
 4 29 l 25
 4 33 l 25
 6 37 l 25
 10 41 l 25
 26 41 l 25
 30 37 l 25
 30 33 l 25
 26 33 l 25
 26 37 l 25
 10 37 l 25
 8 33 l 25
 8 29 l 25
 10 25 l 25
 12 25 l 25
 16 29 l 25
 20 29 l 25
 24 25 l 25
 26 25 l 25
 30 21 l 25
EndSplineSet
Validated: 1
EndChar

StartChar: dieresis
Encoding: 168 168 137
Width: 36
Flags: MW
LayerCount: 2
Back
Fore
SplineSet
20 45 m 5
 20 49 l 5
 24 49 l 5
 24 45 l 5
 20 45 l 5
16 45 m 1
 12 45 l 1
 12 49 l 1
 16 49 l 1
 16 45 l 1
EndSplineSet
Validated: 1
EndChar

StartChar: copyright
Encoding: 169 169 138
Width: 36
Flags: MW
LayerCount: 2
Back
Fore
SplineSet
26 23 m 25
 22 23 l 25
 22 27 l 25
 14 27 l 25
 14 15 l 25
 22 15 l 25
 22 19 l 25
 26 19 l 25
 26 15 l 25
 22 11 l 25
 14 11 l 25
 10 15 l 25
 10 27 l 25
 14 31 l 25
 22 31 l 25
 26 27 l 25
 26 23 l 25
28 37 m 25
 8 37 l 25
 8 5 l 25
 28 5 l 25
 28 37 l 25
4 37 m 25
 8 41 l 25
 28 41 l 25
 32 37 l 25
 32 5 l 25
 28 1 l 25
 8 1 l 25
 4 5 l 25
 4 37 l 25
EndSplineSet
Validated: 1
EndChar

StartChar: ordfeminine
Encoding: 170 170 139
Width: 36
Flags: MW
LayerCount: 2
Back
Fore
SplineSet
14 25 m 25
 20 25 l 25
 20 29 l 25
 14 29 l 25
 14 25 l 25
12 21 m 25
 10 25 l 25
 10 29 l 25
 14 33 l 25
 20 33 l 25
 20 37 l 25
 12 37 l 25
 12 41 l 25
 22 41 l 25
 24 37 l 25
 24 25 l 25
 26 25 l 25
 26 21 l 25
 12 21 l 25
EndSplineSet
Validated: 1
EndChar

StartChar: guillemotleft
Encoding: 171 171 140
Width: 36
Flags: MW
LayerCount: 2
Back
Fore
SplineSet
31 34 m 5
 16 19 l 5
 31 4 l 5
 28 1 l 5
 10 19 l 5
 28 37 l 5
 31 34 l 5
23 34 m 5
 8 19 l 5
 23 4 l 5
 20 1 l 5
 2 19 l 5
 20 37 l 5
 23 34 l 5
EndSplineSet
Validated: 1
EndChar

StartChar: logicalnot
Encoding: 172 172 141
Width: 36
Flags: MW
LayerCount: 2
Back
Fore
SplineSet
28 9 m 29
 24 9 l 29
 24 21 l 29
 4 21 l 29
 4 25 l 29
 28 25 l 29
 28 9 l 29
EndSplineSet
Validated: 1
EndChar

StartChar: uni00AD
Encoding: 173 173 142
Width: 36
Flags: MW
LayerCount: 2
Back
Fore
SplineSet
6 21 m 29
 30 21 l 29
 30 17 l 29
 6 17 l 29
 6 21 l 29
EndSplineSet
Validated: 1
EndChar

StartChar: registered
Encoding: 174 174 143
Width: 36
Flags: MW
LayerCount: 2
Back
Fore
SplineSet
10 11 m 29
 10 31 l 29
 14 31 l 29
 14 27 l 29
 18 31 l 29
 22 31 l 29
 26 27 l 29
 26 23 l 29
 22 23 l 29
 22 27 l 29
 18 27 l 29
 14 23 l 29
 14 11 l 29
 10 11 l 29
28 37 m 25
 8 37 l 25
 8 5 l 25
 28 5 l 25
 28 37 l 25
4 37 m 25
 8 41 l 25
 28 41 l 25
 32 37 l 25
 32 5 l 25
 28 1 l 25
 8 1 l 25
 4 5 l 25
 4 37 l 25
EndSplineSet
Validated: 1
EndChar

StartChar: macron
Encoding: 175 175 144
Width: 36
Flags: MW
LayerCount: 2
Back
Fore
SplineSet
8 37 m 25
 8 41 l 25
 28 41 l 25
 28 37 l 25
 8 37 l 25
EndSplineSet
Validated: 1
EndChar

StartChar: degree
Encoding: 176 176 145
Width: 36
Flags: MW
LayerCount: 2
Back
Fore
SplineSet
22 37 m 29
 14 37 l 29
 14 29 l 29
 22 29 l 29
 22 37 l 29
14 41 m 29
 22 41 l 29
 26 37 l 29
 26 29 l 29
 22 25 l 29
 14 25 l 29
 10 29 l 29
 10 37 l 29
 14 41 l 29
EndSplineSet
Validated: 1
EndChar

StartChar: plusminus
Encoding: 177 177 146
Width: 36
Flags: MW
LayerCount: 2
Back
Fore
SplineSet
6 5 m 25
 30 5 l 25
 30 1 l 25
 6 1 l 25
 6 5 l 25
16 21 m 25
 16 29 l 25
 20 29 l 25
 20 21 l 25
 30 21 l 25
 30 17 l 25
 20 17 l 25
 20 9 l 25
 16 9 l 25
 16 17 l 25
 6 17 l 25
 6 21 l 25
 16 21 l 25
EndSplineSet
Validated: 1
EndChar

StartChar: uni00B2
Encoding: 178 178 147
Width: 36
Flags: MW
LayerCount: 2
Back
Fore
SplineSet
21 37 m 5
 19 38 l 29
 17 38 l 29
 16 37 l 29
 16 35 l 29
 12 35 l 29
 12 37 l 29
 13 39 l 29
 17 41 l 29
 19 41 l 29
 23 39 l 29
 24 37 l 29
 24 35 l 29
 23 32 l 5
 18 28 l 5
 16 25 l 13
 24 25 l 29
 24 21 l 29
 12 21 l 29
 12 25 l 29
 15 29 l 5
 20 33 l 5
 21 35 l 5
 21 37 l 5
EndSplineSet
Validated: 1
EndChar

StartChar: uni00B3
Encoding: 179 179 148
Width: 36
Flags: MW
LayerCount: 2
Back
Fore
SplineSet
22 31 m 29
 24 29 l 29
 24 25 l 29
 23 22 l 29
 20 21 l 29
 15 21 l 29
 12 23 l 29
 12 26 l 29
 15 26 l 29
 15 24 l 29
 20 24 l 29
 21 25 l 29
 21 29 l 29
 20 30 l 29
 17 30 l 29
 17 32 l 29
 20 32 l 29
 21 33 l 29
 21 37 l 29
 20 38 l 29
 15 38 l 29
 15 35 l 29
 12 35 l 29
 12 37 l 29
 15 41 l 29
 20 41 l 29
 23 40 l 29
 24 37 l 29
 24 33 l 29
 22 31 l 29
EndSplineSet
Validated: 1
EndChar

StartChar: acute
Encoding: 180 180 149
Width: 36
Flags: MW
LayerCount: 2
Back
Fore
SplineSet
12 45 m 5
 12 48 l 5
 21 57 l 5
 24 57 l 5
 24 54 l 5
 15 45 l 5
 12 45 l 5
EndSplineSet
Validated: 1
EndChar

StartChar: mu
Encoding: 181 181 150
Width: 36
Flags: MW
LayerCount: 2
Back
Fore
SplineSet
6 25 m 25
 10 25 l 25
 10 5 l 25
 26 5 l 25
 26 25 l 25
 30 25 l 25
 30 5 l 25
 32 5 l 25
 32 1 l 25
 10 1 l 25
 10 -11 l 29
 6 -11 l 29
 6 25 l 25
EndSplineSet
Validated: 1
EndChar

StartChar: paragraph
Encoding: 182 182 151
Width: 36
Flags: MW
LayerCount: 2
Back
Fore
SplineSet
28 41 m 25
 28 1 l 25
 24 1 l 25
 24 37 l 25
 20 37 l 25
 20 1 l 25
 16 1 l 25
 16 21 l 25
 12 21 l 25
 8 25 l 25
 8 37 l 25
 12 41 l 25
 28 41 l 25
EndSplineSet
Validated: 1
EndChar

StartChar: periodcentered
Encoding: 183 183 152
Width: 36
Flags: MW
LayerCount: 2
Back
Fore
SplineSet
14 21 m 29
 14 29 l 29
 22 29 l 29
 22 21 l 29
 14 21 l 29
EndSplineSet
Validated: 1
EndChar

StartChar: cedilla
Encoding: 184 184 153
Width: 36
Flags: MW
LayerCount: 2
Back
Fore
SplineSet
16 1 m 29
 20 1 l 29
 22 -3 l 25
 20 -7 l 25
 16 -7 l 25
 18 -3 l 25
 16 1 l 29
EndSplineSet
Validated: 1
EndChar

StartChar: uni00B9
Encoding: 185 185 154
Width: 36
Flags: MW
LayerCount: 2
Back
Fore
SplineSet
20 21 m 5
 20 35 l 5
 15 30 l 5
 12 33 l 5
 20 41 l 29
 24 41 l 29
 24 21 l 29
 20 21 l 5
EndSplineSet
Validated: 1
EndChar

StartChar: ordmasculine
Encoding: 186 186 155
Width: 36
Flags: MW
LayerCount: 2
Back
Fore
SplineSet
24 37 m 25
 12 37 l 25
 12 25 l 25
 24 25 l 25
 24 37 l 25
12 41 m 25
 24 41 l 25
 28 37 l 25
 28 25 l 25
 24 21 l 25
 12 21 l 25
 8 25 l 25
 8 37 l 25
 12 41 l 25
EndSplineSet
Validated: 1
EndChar

StartChar: guillemotright
Encoding: 187 187 156
Width: 36
Flags: MW
LayerCount: 2
Back
Fore
SplineSet
5 34 m 5
 8 37 l 5
 26 19 l 5
 8 1 l 5
 5 4 l 5
 20 19 l 5
 5 34 l 5
13 34 m 5
 16 37 l 5
 34 19 l 5
 16 1 l 5
 13 4 l 5
 28 19 l 5
 13 34 l 5
EndSplineSet
Validated: 1
EndChar

StartChar: onequarter
Encoding: 188 188 157
Width: 36
Flags: MW
LayerCount: 2
Back
Fore
SplineSet
16 1 m 1
 20 1 l 1
 20 5 l 1
 16 1 l 1
20 9 m 1
 24 9 l 1
 24 1 l 9
 28 1 l 25
 28 -3 l 25
 24 -3 l 25
 24 -11 l 25
 20 -11 l 25
 20 -3 l 25
 12 -3 l 25
 12 1 l 25
 20 9 l 1
28 17 m 25
 28 13 l 25
 8 13 l 25
 8 17 l 25
 28 17 l 25
20 21 m 1
 20 35 l 1
 15 30 l 1
 12 33 l 1
 20 41 l 25
 24 41 l 25
 24 21 l 25
 20 21 l 1
EndSplineSet
Validated: 1
EndChar

StartChar: onehalf
Encoding: 189 189 158
Width: 36
Flags: MW
LayerCount: 2
Back
Fore
SplineSet
21 5 m 1
 19 6 l 25
 17 6 l 25
 16 5 l 25
 16 3 l 25
 12 3 l 25
 12 5 l 25
 13 7 l 25
 17 9 l 25
 19 9 l 25
 23 7 l 25
 24 5 l 25
 24 3 l 25
 23 0 l 1
 18 -4 l 1
 16 -7 l 9
 24 -7 l 25
 24 -11 l 29
 12 -11 l 25
 12 -7 l 25
 15 -3 l 1
 20 1 l 1
 21 3 l 1
 21 5 l 1
28 17 m 25
 28 13 l 25
 8 13 l 25
 8 17 l 25
 28 17 l 25
20 21 m 1
 20 35 l 1
 15 30 l 1
 12 33 l 1
 20 41 l 25
 24 41 l 25
 24 21 l 25
 20 21 l 1
EndSplineSet
Validated: 1
EndChar

StartChar: threequarters
Encoding: 190 190 159
Width: 36
Flags: MW
LayerCount: 2
Back
Fore
SplineSet
22 31 m 25
 24 29 l 25
 24 25 l 25
 23 22 l 25
 20 21 l 25
 15 21 l 25
 12 23 l 25
 12 26 l 25
 15 26 l 25
 15 24 l 25
 20 24 l 25
 21 25 l 25
 21 29 l 25
 20 30 l 25
 17 30 l 25
 17 32 l 25
 20 32 l 25
 21 33 l 25
 21 37 l 25
 20 38 l 25
 15 38 l 25
 15 35 l 25
 12 35 l 25
 12 37 l 25
 15 41 l 25
 20 41 l 25
 23 40 l 25
 24 37 l 25
 24 33 l 25
 22 31 l 25
16 1 m 1
 20 1 l 1
 20 5 l 5
 16 1 l 1
20 9 m 1
 24 9 l 1
 24 1 l 9
 28 1 l 25
 28 -3 l 25
 24 -3 l 25
 24 -11 l 25
 20 -11 l 25
 20 -3 l 25
 12 -3 l 25
 12 1 l 25
 20 9 l 1
28 17 m 25
 28 13 l 25
 8 13 l 25
 8 17 l 25
 28 17 l 25
EndSplineSet
Validated: 1
EndChar

StartChar: questiondown
Encoding: 191 191 160
Width: 36
Flags: MW
LayerCount: 2
Back
Fore
SplineSet
16 28 m 1
 20 28 l 25
 20 24 l 1
 24 22 l 1
 28 18 l 1
 30 12 l 1
 30 4 l 25
 28 0 l 25
 24 -4 l 25
 12 -4 l 25
 8 0 l 25
 6 4 l 25
 6 12 l 25
 10 12 l 25
 10 4 l 1
 14 0 l 1
 22 0 l 1
 26 4 l 1
 26 12 l 25
 24 16 l 1
 20 20 l 1
 16 22 l 1
 16 28 l 1
16 32 m 25
 16 36 l 25
 20 36 l 25
 20 32 l 25
 16 32 l 25
EndSplineSet
Validated: 1
EndChar

StartChar: Agrave
Encoding: 192 192 161
Width: 36
Flags: MW
LayerCount: 2
Back
Fore
SplineSet
24 45 m 5
 21 45 l 5
 12 54 l 5
 12 57 l 5
 15 57 l 5
 24 48 l 5
 24 45 l 5
28 17 m 25
 28 25 l 25
 22 37 l 25
 14 37 l 25
 8 25 l 25
 8 17 l 25
 28 17 l 25
4 1 m 25
 4 25 l 25
 10 37 l 25
 14 41 l 25
 22 41 l 25
 26 37 l 25
 32 25 l 25
 32 1 l 25
 28 1 l 25
 28 13 l 25
 8 13 l 25
 8 1 l 25
 4 1 l 25
EndSplineSet
Validated: 1
EndChar

StartChar: Aacute
Encoding: 193 193 162
Width: 36
Flags: MW
LayerCount: 2
Back
Fore
SplineSet
12 45 m 5
 12 48 l 5
 21 57 l 5
 24 57 l 5
 24 54 l 5
 15 45 l 5
 12 45 l 5
28 17 m 25
 28 25 l 25
 22 37 l 25
 14 37 l 25
 8 25 l 25
 8 17 l 25
 28 17 l 25
4 1 m 25
 4 25 l 25
 10 37 l 25
 14 41 l 25
 22 41 l 25
 26 37 l 25
 32 25 l 25
 32 1 l 25
 28 1 l 25
 28 13 l 25
 8 13 l 25
 8 1 l 25
 4 1 l 25
EndSplineSet
Validated: 1
EndChar

StartChar: Acircumflex
Encoding: 194 194 163
Width: 36
Flags: MW
LayerCount: 2
Back
Fore
SplineSet
12 45 m 29
 18 57 l 5
 24 45 l 29
 20 45 l 29
 18 49 l 5
 16 45 l 29
 12 45 l 29
28 17 m 25
 28 25 l 25
 22 37 l 25
 14 37 l 25
 8 25 l 25
 8 17 l 25
 28 17 l 25
4 1 m 25
 4 25 l 25
 10 37 l 25
 14 41 l 25
 22 41 l 25
 26 37 l 25
 32 25 l 25
 32 1 l 25
 28 1 l 25
 28 13 l 25
 8 13 l 25
 8 1 l 25
 4 1 l 25
EndSplineSet
Validated: 1
EndChar

StartChar: Atilde
Encoding: 195 195 164
Width: 36
Flags: MW
LayerCount: 2
Back
Fore
SplineSet
4 49 m 29
 4 53 l 29
 8 57 l 29
 16 57 l 29
 20 53 l 29
 20 49 l 29
 28 49 l 29
 28 53 l 29
 32 53 l 29
 32 49 l 29
 28 45 l 29
 20 45 l 29
 16 49 l 29
 16 53 l 29
 8 53 l 29
 8 49 l 29
 4 49 l 29
28 17 m 25
 28 25 l 25
 22 37 l 25
 14 37 l 25
 8 25 l 25
 8 17 l 25
 28 17 l 25
4 1 m 25
 4 25 l 25
 10 37 l 25
 14 41 l 25
 22 41 l 25
 26 37 l 25
 32 25 l 25
 32 1 l 25
 28 1 l 25
 28 13 l 25
 8 13 l 25
 8 1 l 25
 4 1 l 25
EndSplineSet
Validated: 1
EndChar

StartChar: Adieresis
Encoding: 196 196 165
Width: 36
Flags: MW
LayerCount: 2
Back
Fore
SplineSet
20 45 m 5
 20 49 l 5
 24 49 l 5
 24 45 l 5
 20 45 l 5
16 45 m 5
 12 45 l 5
 12 49 l 5
 16 49 l 5
 16 45 l 5
28 17 m 25
 28 25 l 25
 22 37 l 25
 14 37 l 25
 8 25 l 25
 8 17 l 25
 28 17 l 25
4 1 m 25
 4 25 l 25
 10 37 l 25
 14 41 l 25
 22 41 l 25
 26 37 l 25
 32 25 l 25
 32 1 l 25
 28 1 l 25
 28 13 l 25
 8 13 l 25
 8 1 l 25
 4 1 l 25
EndSplineSet
Validated: 1
EndChar

StartChar: Aring
Encoding: 197 197 166
Width: 36
Flags: MW
LayerCount: 2
Back
Fore
SplineSet
20 53 m 29
 16 53 l 29
 16 49 l 29
 20 49 l 29
 20 53 l 29
12 53 m 29
 16 57 l 29
 20 57 l 29
 24 53 l 29
 24 49 l 29
 20 45 l 29
 16 45 l 29
 12 49 l 29
 12 53 l 29
28 17 m 25
 28 25 l 25
 22 37 l 25
 14 37 l 25
 8 25 l 25
 8 17 l 25
 28 17 l 25
4 1 m 25
 4 25 l 25
 10 37 l 25
 14 41 l 25
 22 41 l 25
 26 37 l 25
 32 25 l 25
 32 1 l 25
 28 1 l 25
 28 13 l 25
 8 13 l 25
 8 1 l 25
 4 1 l 25
EndSplineSet
Validated: 1
EndChar

StartChar: AE
Encoding: 198 198 167
Width: 36
Flags: MW
LayerCount: 2
Back
Fore
SplineSet
16 37 m 29
 14 37 l 29
 8 25 l 29
 8 17 l 29
 16 17 l 29
 16 37 l 29
16 13 m 29
 8 13 l 29
 8 1 l 29
 4 1 l 29
 4 25 l 29
 10 37 l 29
 14 41 l 29
 32 41 l 29
 32 37 l 29
 20 37 l 29
 20 25 l 29
 28 25 l 29
 28 21 l 29
 20 21 l 29
 20 5 l 29
 32 5 l 29
 32 1 l 29
 16 1 l 21
 16 13 l 29
EndSplineSet
Validated: 1
EndChar

StartChar: Ccedilla
Encoding: 199 199 168
Width: 36
Flags: MW
LayerCount: 2
Back
Fore
SplineSet
8 5 m 25
 4 13 l 25
 4 29 l 25
 8 37 l 25
 12 41 l 25
 24 41 l 25
 28 37 l 25
 30 33 l 25
 30 29 l 25
 26 29 l 25
 26 33 l 25
 24 37 l 25
 12 37 l 25
 8 29 l 25
 8 13 l 25
 12 5 l 25
 24 5 l 1
 26 9 l 25
 26 13 l 1
 30 13 l 25
 30 9 l 25
 28 5 l 25
 24 1 l 25
 20 1 l 25
 22 -3 l 25
 20 -7 l 25
 16 -7 l 25
 18 -3 l 25
 16 1 l 25
 12 1 l 25
 8 5 l 25
EndSplineSet
Validated: 1
EndChar

StartChar: Egrave
Encoding: 200 200 169
Width: 36
Flags: MW
LayerCount: 2
Back
Fore
SplineSet
24 45 m 5
 21 45 l 5
 12 54 l 5
 12 57 l 5
 15 57 l 5
 24 48 l 5
 24 45 l 5
4 1 m 25
 4 41 l 25
 32 41 l 25
 32 37 l 25
 8 37 l 25
 8 25 l 25
 24 25 l 25
 24 21 l 25
 8 21 l 25
 8 5 l 25
 32 5 l 25
 32 1 l 25
 4 1 l 25
EndSplineSet
Validated: 1
EndChar

StartChar: Eacute
Encoding: 201 201 170
Width: 36
Flags: MW
LayerCount: 2
Back
Fore
SplineSet
12 45 m 5
 12 48 l 5
 21 57 l 5
 24 57 l 5
 24 54 l 5
 15 45 l 5
 12 45 l 5
4 1 m 25
 4 41 l 25
 32 41 l 25
 32 37 l 25
 8 37 l 25
 8 25 l 25
 24 25 l 25
 24 21 l 25
 8 21 l 25
 8 5 l 25
 32 5 l 25
 32 1 l 25
 4 1 l 25
EndSplineSet
Validated: 1
EndChar

StartChar: Ecircumflex
Encoding: 202 202 171
Width: 36
Flags: MW
LayerCount: 2
Back
Fore
SplineSet
12 45 m 29
 18 57 l 5
 24 45 l 29
 20 45 l 29
 18 49 l 5
 16 45 l 29
 12 45 l 29
4 1 m 25
 4 41 l 25
 32 41 l 25
 32 37 l 25
 8 37 l 25
 8 25 l 25
 24 25 l 25
 24 21 l 25
 8 21 l 25
 8 5 l 25
 32 5 l 25
 32 1 l 25
 4 1 l 25
EndSplineSet
Validated: 1
EndChar

StartChar: Edieresis
Encoding: 203 203 172
Width: 36
Flags: MW
LayerCount: 2
Back
Fore
SplineSet
20 45 m 5
 20 49 l 5
 24 49 l 5
 24 45 l 5
 20 45 l 5
16 45 m 5
 12 45 l 5
 12 49 l 5
 16 49 l 5
 16 45 l 5
4 1 m 25
 4 41 l 25
 32 41 l 25
 32 37 l 25
 8 37 l 25
 8 25 l 25
 24 25 l 25
 24 21 l 25
 8 21 l 25
 8 5 l 25
 32 5 l 25
 32 1 l 25
 4 1 l 25
EndSplineSet
Validated: 1
EndChar

StartChar: Igrave
Encoding: 204 204 173
Width: 36
Flags: MW
LayerCount: 2
Back
Fore
SplineSet
24 45 m 5
 21 45 l 5
 12 54 l 5
 12 57 l 5
 15 57 l 5
 24 48 l 5
 24 45 l 5
8 41 m 25
 28 41 l 25
 28 37 l 25
 20 37 l 25
 20 5 l 25
 28 5 l 25
 28 1 l 25
 8 1 l 25
 8 5 l 25
 16 5 l 25
 16 37 l 25
 8 37 l 25
 8 41 l 25
EndSplineSet
Validated: 1
EndChar

StartChar: Iacute
Encoding: 205 205 174
Width: 36
Flags: MW
LayerCount: 2
Back
Fore
SplineSet
12 45 m 5
 12 48 l 5
 21 57 l 5
 24 57 l 5
 24 54 l 5
 15 45 l 5
 12 45 l 5
8 41 m 25
 28 41 l 25
 28 37 l 25
 20 37 l 25
 20 5 l 25
 28 5 l 25
 28 1 l 25
 8 1 l 25
 8 5 l 25
 16 5 l 25
 16 37 l 25
 8 37 l 25
 8 41 l 25
EndSplineSet
Validated: 1
EndChar

StartChar: Icircumflex
Encoding: 206 206 175
Width: 36
Flags: MW
LayerCount: 2
Back
Fore
SplineSet
12 45 m 29
 18 57 l 5
 24 45 l 29
 20 45 l 29
 18 49 l 5
 16 45 l 29
 12 45 l 29
8 41 m 25
 28 41 l 25
 28 37 l 25
 20 37 l 25
 20 5 l 25
 28 5 l 25
 28 1 l 25
 8 1 l 25
 8 5 l 25
 16 5 l 25
 16 37 l 25
 8 37 l 25
 8 41 l 25
EndSplineSet
Validated: 1
EndChar

StartChar: Idieresis
Encoding: 207 207 176
Width: 36
Flags: MW
LayerCount: 2
Back
Fore
SplineSet
20 45 m 5
 20 49 l 5
 24 49 l 5
 24 45 l 5
 20 45 l 5
16 45 m 5
 12 45 l 5
 12 49 l 5
 16 49 l 5
 16 45 l 5
8 41 m 25
 28 41 l 25
 28 37 l 25
 20 37 l 25
 20 5 l 25
 28 5 l 25
 28 1 l 25
 8 1 l 25
 8 5 l 25
 16 5 l 25
 16 37 l 25
 8 37 l 25
 8 41 l 25
EndSplineSet
Validated: 1
EndChar

StartChar: Eth
Encoding: 208 208 177
Width: 36
Flags: MW
LayerCount: 2
Back
Fore
SplineSet
8 37 m 25
 8 25 l 25
 20 25 l 29
 20 21 l 29
 8 21 l 25
 8 5 l 25
 24 5 l 25
 28 9 l 25
 28 33 l 25
 24 37 l 25
 8 37 l 25
4 1 m 25
 4 21 l 25
 0 21 l 25
 0 25 l 25
 4 25 l 25
 4 41 l 25
 24 41 l 25
 32 33 l 25
 32 9 l 25
 24 1 l 25
 4 1 l 25
EndSplineSet
Validated: 1
EndChar

StartChar: Ntilde
Encoding: 209 209 178
Width: 36
Flags: MW
LayerCount: 2
Back
Fore
SplineSet
4 49 m 29
 4 53 l 29
 8 57 l 29
 16 57 l 29
 20 53 l 29
 20 49 l 29
 28 49 l 29
 28 53 l 29
 32 53 l 29
 32 49 l 29
 28 45 l 29
 20 45 l 29
 16 49 l 29
 16 53 l 29
 8 53 l 29
 8 49 l 29
 4 49 l 29
4 1 m 25
 4 41 l 25
 8 41 l 25
 12 33 l 25
 28 17 l 25
 28 41 l 25
 32 41 l 25
 32 1 l 25
 28 1 l 25
 24 13 l 25
 8 29 l 25
 8 1 l 25
 4 1 l 25
EndSplineSet
Validated: 1
EndChar

StartChar: Ograve
Encoding: 210 210 179
Width: 36
Flags: MW
LayerCount: 2
Back
Fore
SplineSet
24 45 m 5
 21 45 l 5
 12 54 l 5
 12 57 l 5
 15 57 l 5
 24 48 l 5
 24 45 l 5
28 37 m 25
 8 37 l 25
 8 5 l 25
 28 5 l 25
 28 37 l 25
4 37 m 25
 8 41 l 25
 28 41 l 25
 32 37 l 25
 32 5 l 25
 28 1 l 25
 8 1 l 25
 4 5 l 25
 4 37 l 25
EndSplineSet
Validated: 1
EndChar

StartChar: Oacute
Encoding: 211 211 180
Width: 36
Flags: MW
LayerCount: 2
Back
Fore
SplineSet
12 45 m 5
 12 48 l 5
 21 57 l 5
 24 57 l 5
 24 54 l 5
 15 45 l 5
 12 45 l 5
28 37 m 25
 8 37 l 25
 8 5 l 25
 28 5 l 25
 28 37 l 25
4 37 m 25
 8 41 l 25
 28 41 l 25
 32 37 l 25
 32 5 l 25
 28 1 l 25
 8 1 l 25
 4 5 l 25
 4 37 l 25
EndSplineSet
Validated: 1
EndChar

StartChar: Ocircumflex
Encoding: 212 212 181
Width: 36
Flags: MW
LayerCount: 2
Back
Fore
SplineSet
12 45 m 29
 18 57 l 5
 24 45 l 29
 20 45 l 29
 18 49 l 5
 16 45 l 29
 12 45 l 29
28 37 m 25
 8 37 l 25
 8 5 l 25
 28 5 l 25
 28 37 l 25
4 37 m 25
 8 41 l 25
 28 41 l 25
 32 37 l 25
 32 5 l 25
 28 1 l 25
 8 1 l 25
 4 5 l 25
 4 37 l 25
EndSplineSet
Validated: 1
EndChar

StartChar: Otilde
Encoding: 213 213 182
Width: 36
Flags: MW
LayerCount: 2
Back
Fore
SplineSet
4 49 m 29
 4 53 l 29
 8 57 l 29
 16 57 l 29
 20 53 l 29
 20 49 l 29
 28 49 l 29
 28 53 l 29
 32 53 l 29
 32 49 l 29
 28 45 l 29
 20 45 l 29
 16 49 l 29
 16 53 l 29
 8 53 l 29
 8 49 l 29
 4 49 l 29
28 37 m 25
 8 37 l 25
 8 5 l 25
 28 5 l 25
 28 37 l 25
4 37 m 25
 8 41 l 25
 28 41 l 25
 32 37 l 25
 32 5 l 25
 28 1 l 25
 8 1 l 25
 4 5 l 25
 4 37 l 25
EndSplineSet
Validated: 1
EndChar

StartChar: Odieresis
Encoding: 214 214 183
Width: 36
Flags: MW
LayerCount: 2
Back
Fore
SplineSet
20 45 m 5
 20 49 l 5
 24 49 l 5
 24 45 l 5
 20 45 l 5
16 45 m 5
 12 45 l 5
 12 49 l 5
 16 49 l 5
 16 45 l 5
28 37 m 25
 8 37 l 25
 8 5 l 25
 28 5 l 25
 28 37 l 25
4 37 m 25
 8 41 l 25
 28 41 l 25
 32 37 l 25
 32 5 l 25
 28 1 l 25
 8 1 l 25
 4 5 l 25
 4 37 l 25
EndSplineSet
Validated: 1
EndChar

StartChar: multiply
Encoding: 215 215 184
Width: 36
Flags: MW
LayerCount: 2
Back
Fore
SplineSet
10 18 m 1
 13 21 l 1
 18 16 l 1
 23 21 l 1
 26 18 l 1
 21 13 l 1
 26 8 l 1
 23 5 l 1
 18 10 l 1
 13 5 l 1
 10 8 l 1
 15 13 l 1
 10 18 l 1
EndSplineSet
Validated: 1
EndChar

StartChar: Oslash
Encoding: 216 216 185
Width: 36
Flags: MW
LayerCount: 2
Back
Fore
SplineSet
28 33 m 25
 11 5 l 25
 28 5 l 25
 28 33 l 25
8 37 m 25
 8 8 l 25
 25 37 l 25
 8 37 l 25
4 3 m 25
 4 37 l 25
 8 41 l 25
 28 41 l 25
 32 46 l 25
 36 43 l 25
 32 37 l 25
 32 5 l 25
 28 1 l 25
 8 1 l 25
 4 -5 l 25
 0 -3 l 25
 4 3 l 25
EndSplineSet
Validated: 1
EndChar

StartChar: Ugrave
Encoding: 217 217 186
Width: 36
Flags: MW
LayerCount: 2
Back
Fore
SplineSet
24 45 m 5
 21 45 l 5
 12 54 l 5
 12 57 l 5
 15 57 l 5
 24 48 l 5
 24 45 l 5
4 41 m 25
 8 41 l 25
 8 9 l 25
 10 5 l 25
 26 5 l 25
 28 9 l 25
 28 41 l 25
 32 41 l 25
 32 9 l 25
 30 5 l 25
 26 1 l 25
 10 1 l 25
 6 5 l 25
 4 9 l 25
 4 41 l 25
EndSplineSet
Validated: 1
EndChar

StartChar: Uacute
Encoding: 218 218 187
Width: 36
Flags: MW
LayerCount: 2
Back
Fore
SplineSet
12 45 m 5
 12 48 l 5
 21 57 l 5
 24 57 l 5
 24 54 l 5
 15 45 l 5
 12 45 l 5
4 41 m 25
 8 41 l 25
 8 9 l 25
 10 5 l 25
 26 5 l 25
 28 9 l 25
 28 41 l 25
 32 41 l 25
 32 9 l 25
 30 5 l 25
 26 1 l 25
 10 1 l 25
 6 5 l 25
 4 9 l 25
 4 41 l 25
EndSplineSet
Validated: 1
EndChar

StartChar: Ucircumflex
Encoding: 219 219 188
Width: 36
Flags: MW
LayerCount: 2
Back
Fore
SplineSet
12 45 m 29
 18 57 l 5
 24 45 l 29
 20 45 l 29
 18 49 l 5
 16 45 l 29
 12 45 l 29
4 41 m 25
 8 41 l 25
 8 9 l 25
 10 5 l 25
 26 5 l 25
 28 9 l 25
 28 41 l 25
 32 41 l 25
 32 9 l 25
 30 5 l 25
 26 1 l 25
 10 1 l 25
 6 5 l 25
 4 9 l 25
 4 41 l 25
EndSplineSet
Validated: 1
EndChar

StartChar: Udieresis
Encoding: 220 220 189
Width: 36
Flags: MW
LayerCount: 2
Back
Fore
SplineSet
20 45 m 5
 20 49 l 5
 24 49 l 5
 24 45 l 5
 20 45 l 5
16 45 m 5
 12 45 l 5
 12 49 l 5
 16 49 l 5
 16 45 l 5
4 41 m 25
 8 41 l 25
 8 9 l 25
 10 5 l 25
 26 5 l 25
 28 9 l 25
 28 41 l 25
 32 41 l 25
 32 9 l 25
 30 5 l 25
 26 1 l 25
 10 1 l 25
 6 5 l 25
 4 9 l 25
 4 41 l 25
EndSplineSet
Validated: 1
EndChar

StartChar: Yacute
Encoding: 221 221 190
Width: 36
Flags: MW
LayerCount: 2
Back
Fore
SplineSet
12 45 m 5
 12 48 l 5
 21 57 l 5
 24 57 l 5
 24 54 l 5
 15 45 l 5
 12 45 l 5
10 41 m 25
 18 25 l 25
 26 41 l 25
 30 41 l 25
 20 21 l 25
 20 1 l 25
 16 1 l 25
 16 21 l 25
 6 41 l 25
 10 41 l 25
EndSplineSet
Validated: 1
EndChar

StartChar: Thorn
Encoding: 222 222 191
Width: 36
Flags: MW
LayerCount: 2
Back
Fore
SplineSet
8 9 m 25
 24 9 l 25
 24 21 l 25
 8 21 l 25
 8 9 l 25
4 33 m 25
 8 33 l 25
 8 25 l 25
 24 25 l 25
 28 21 l 25
 28 9 l 25
 24 5 l 25
 8 5 l 25
 8 -3 l 25
 4 -3 l 25
 4 33 l 25
EndSplineSet
Validated: 1
EndChar

StartChar: germandbls
Encoding: 223 223 192
Width: 36
Flags: MW
LayerCount: 2
Back
Fore
SplineSet
26 33 m 25
 24 37 l 25
 12 37 l 25
 10 33 l 25
 10 5 l 25
 26 5 l 25
 26 17 l 25
 14 17 l 25
 14 21 l 25
 22 21 l 25
 26 25 l 25
 26 33 l 25
6 -7 m 25
 6 33 l 25
 8 37 l 25
 12 41 l 25
 24 41 l 25
 28 37 l 25
 30 33 l 25
 30 25 l 25
 26 21 l 25
 30 17 l 25
 30 5 l 25
 26 1 l 25
 10 1 l 25
 10 -7 l 25
 6 -7 l 25
EndSplineSet
Validated: 1
EndChar

StartChar: agrave
Encoding: 224 224 193
Width: 36
Flags: MW
LayerCount: 2
Back
Fore
SplineSet
24 29 m 5
 21 29 l 5
 12 38 l 5
 12 41 l 5
 15 41 l 5
 24 32 l 5
 24 29 l 5
10 5 m 25
 26 5 l 25
 26 13 l 25
 10 13 l 25
 10 5 l 25
8 1 m 25
 6 5 l 25
 6 13 l 25
 10 17 l 25
 26 17 l 25
 26 21 l 25
 8 21 l 25
 8 25 l 25
 28 25 l 25
 30 21 l 25
 30 5 l 25
 32 5 l 25
 32 1 l 25
 8 1 l 25
EndSplineSet
Validated: 1
EndChar

StartChar: aacute
Encoding: 225 225 194
Width: 36
Flags: MW
LayerCount: 2
Back
Fore
SplineSet
12 29 m 5
 12 32 l 5
 21 41 l 5
 24 41 l 5
 24 38 l 5
 15 29 l 5
 12 29 l 5
10 5 m 25
 26 5 l 25
 26 13 l 25
 10 13 l 25
 10 5 l 25
8 1 m 25
 6 5 l 25
 6 13 l 25
 10 17 l 25
 26 17 l 25
 26 21 l 25
 8 21 l 25
 8 25 l 25
 28 25 l 25
 30 21 l 25
 30 5 l 25
 32 5 l 25
 32 1 l 25
 8 1 l 25
EndSplineSet
Validated: 1
EndChar

StartChar: acircumflex
Encoding: 226 226 195
Width: 36
Flags: MW
LayerCount: 2
Back
Fore
SplineSet
12 29 m 29
 18 41 l 5
 24 29 l 29
 20 29 l 29
 18 33 l 5
 16 29 l 29
 12 29 l 29
26 13 m 25
 10 13 l 25
 10 5 l 25
 26 5 l 25
 26 13 l 25
8 25 m 25
 28 25 l 25
 30 21 l 25
 30 5 l 25
 32 5 l 25
 32 1 l 25
 8 1 l 25
 6 5 l 25
 6 13 l 25
 10 17 l 25
 26 17 l 25
 26 21 l 25
 8 21 l 25
 8 25 l 25
EndSplineSet
Validated: 1
EndChar

StartChar: atilde
Encoding: 227 227 196
Width: 36
Flags: MW
LayerCount: 2
Back
Fore
SplineSet
4 33 m 29
 4 37 l 29
 8 41 l 29
 16 41 l 29
 20 37 l 29
 20 33 l 29
 28 33 l 29
 28 37 l 29
 32 37 l 29
 32 33 l 29
 28 29 l 29
 20 29 l 29
 16 33 l 29
 16 37 l 29
 8 37 l 29
 8 33 l 29
 4 33 l 29
26 13 m 25
 10 13 l 25
 10 5 l 25
 26 5 l 25
 26 13 l 25
8 25 m 25
 28 25 l 25
 30 21 l 25
 30 5 l 25
 32 5 l 25
 32 1 l 25
 8 1 l 25
 6 5 l 25
 6 13 l 25
 10 17 l 25
 26 17 l 25
 26 21 l 25
 8 21 l 25
 8 25 l 25
EndSplineSet
Validated: 1
EndChar

StartChar: adieresis
Encoding: 228 228 197
Width: 36
Flags: MW
LayerCount: 2
Back
Fore
SplineSet
20 29 m 5
 20 33 l 5
 24 33 l 5
 24 29 l 5
 20 29 l 5
16 29 m 5
 12 29 l 5
 12 33 l 5
 16 33 l 5
 16 29 l 5
26 13 m 25
 10 13 l 25
 10 5 l 25
 26 5 l 25
 26 13 l 25
8 25 m 25
 28 25 l 25
 30 21 l 25
 30 5 l 25
 32 5 l 25
 32 1 l 25
 8 1 l 25
 6 5 l 25
 6 13 l 25
 10 17 l 25
 26 17 l 25
 26 21 l 25
 8 21 l 25
 8 25 l 25
EndSplineSet
Validated: 1
EndChar

StartChar: aring
Encoding: 229 229 198
Width: 36
Flags: MW
LayerCount: 2
Back
Fore
SplineSet
20 37 m 29
 16 37 l 29
 16 33 l 29
 20 33 l 29
 20 37 l 29
12 37 m 29
 16 41 l 29
 20 41 l 29
 24 37 l 29
 24 33 l 29
 20 29 l 29
 16 29 l 29
 12 33 l 29
 12 37 l 29
26 13 m 25
 10 13 l 25
 10 5 l 25
 26 5 l 25
 26 13 l 25
8 25 m 25
 28 25 l 25
 30 21 l 25
 30 5 l 25
 32 5 l 25
 32 1 l 25
 8 1 l 25
 6 5 l 25
 6 13 l 25
 10 17 l 25
 26 17 l 25
 26 21 l 25
 8 21 l 25
 8 25 l 25
EndSplineSet
Validated: 1
EndChar

StartChar: ae
Encoding: 230 230 199
Width: 36
Flags: MW
LayerCount: 2
Back
Fore
SplineSet
22 21 m 29
 22 17 l 29
 30 17 l 29
 30 21 l 29
 22 21 l 29
22 5 m 29
 34 5 l 29
 34 1 l 29
 8 1 l 29
 6 5 l 29
 6 13 l 29
 10 17 l 29
 18 17 l 29
 18 21 l 29
 8 21 l 29
 8 25 l 29
 18 25 l 29
 20 23 l 5
 22 25 l 13
 30 25 l 29
 34 21 l 29
 34 13 l 29
 22 13 l 29
 22 5 l 29
10 5 m 29
 18 5 l 29
 18 13 l 29
 10 13 l 29
 10 5 l 29
EndSplineSet
Validated: 1
EndChar

StartChar: ccedilla
Encoding: 231 231 200
Width: 36
Flags: MW
LayerCount: 2
Back
Fore
SplineSet
30 5 m 25
 26 1 l 25
 20 1 l 29
 22 -3 l 29
 20 -7 l 29
 16 -7 l 29
 18 -3 l 29
 16 1 l 29
 10 1 l 25
 6 5 l 25
 6 21 l 25
 10 25 l 25
 26 25 l 25
 30 21 l 25
 30 17 l 25
 26 17 l 25
 26 21 l 25
 10 21 l 25
 10 5 l 25
 26 5 l 25
 26 9 l 25
 30 9 l 25
 30 5 l 25
EndSplineSet
Validated: 1
EndChar

StartChar: egrave
Encoding: 232 232 201
Width: 36
Flags: MW
LayerCount: 2
Back
Fore
SplineSet
24 29 m 1
 21 29 l 1
 12 38 l 1
 12 41 l 1
 15 41 l 1
 24 32 l 1
 24 29 l 1
10 21 m 29
 10 17 l 29
 26 17 l 29
 26 21 l 29
 10 21 l 29
6 21 m 29
 10 25 l 29
 26 25 l 29
 30 21 l 29
 30 13 l 29
 10 13 l 29
 10 5 l 29
 30 5 l 29
 30 1 l 29
 10 1 l 29
 6 5 l 29
 6 21 l 29
EndSplineSet
Validated: 1
EndChar

StartChar: eacute
Encoding: 233 233 202
Width: 36
Flags: MW
LayerCount: 2
Back
Fore
SplineSet
12 29 m 5
 12 32 l 5
 21 41 l 5
 24 41 l 5
 24 38 l 5
 15 29 l 5
 12 29 l 5
10 21 m 25
 10 17 l 25
 26 17 l 25
 26 21 l 25
 10 21 l 25
6 21 m 25
 10 25 l 25
 26 25 l 25
 30 21 l 25
 30 13 l 25
 10 13 l 25
 10 5 l 25
 30 5 l 25
 30 1 l 25
 10 1 l 25
 6 5 l 25
 6 21 l 25
EndSplineSet
Validated: 1
EndChar

StartChar: ecircumflex
Encoding: 234 234 203
Width: 36
Flags: MW
LayerCount: 2
Back
Fore
SplineSet
12 29 m 29
 18 41 l 5
 24 29 l 29
 20 29 l 29
 18 33 l 5
 16 29 l 29
 12 29 l 29
10 21 m 25
 10 17 l 25
 26 17 l 25
 26 21 l 25
 10 21 l 25
6 21 m 25
 10 25 l 25
 26 25 l 25
 30 21 l 25
 30 13 l 25
 10 13 l 25
 10 5 l 25
 30 5 l 25
 30 1 l 25
 10 1 l 25
 6 5 l 25
 6 21 l 25
EndSplineSet
Validated: 1
EndChar

StartChar: edieresis
Encoding: 235 235 204
Width: 36
Flags: MW
LayerCount: 2
Back
Fore
SplineSet
20 29 m 5
 20 33 l 5
 24 33 l 5
 24 29 l 5
 20 29 l 5
16 29 m 5
 12 29 l 5
 12 33 l 5
 16 33 l 5
 16 29 l 5
10 21 m 25
 10 17 l 25
 26 17 l 25
 26 21 l 25
 10 21 l 25
6 21 m 25
 10 25 l 25
 26 25 l 25
 30 21 l 25
 30 13 l 25
 10 13 l 25
 10 5 l 25
 30 5 l 25
 30 1 l 25
 10 1 l 25
 6 5 l 25
 6 21 l 25
EndSplineSet
Validated: 1
EndChar

StartChar: igrave
Encoding: 236 236 205
Width: 36
Flags: MW
LayerCount: 2
Back
Fore
SplineSet
20 29 m 5
 17 29 l 5
 8 38 l 5
 8 41 l 5
 11 41 l 5
 20 32 l 5
 20 29 l 5
12 25 m 25
 20 25 l 25
 20 5 l 25
 26 5 l 25
 26 1 l 25
 10 1 l 25
 10 5 l 25
 16 5 l 25
 16 21 l 25
 12 21 l 25
 12 25 l 25
EndSplineSet
Validated: 1
EndChar

StartChar: iacute
Encoding: 237 237 206
Width: 36
Flags: MW
LayerCount: 2
Back
Fore
SplineSet
16 29 m 5
 16 32 l 5
 25 41 l 5
 28 41 l 5
 28 38 l 5
 19 29 l 5
 16 29 l 5
12 25 m 25
 20 25 l 25
 20 5 l 25
 26 5 l 25
 26 1 l 25
 10 1 l 25
 10 5 l 25
 16 5 l 25
 16 21 l 25
 12 21 l 25
 12 25 l 25
EndSplineSet
Validated: 1
EndChar

StartChar: icircumflex
Encoding: 238 238 207
Width: 36
Flags: MW
LayerCount: 2
Back
Fore
SplineSet
12 29 m 29
 18 41 l 1
 24 29 l 25
 20 29 l 25
 18 33 l 1
 16 29 l 29
 12 29 l 29
12 25 m 25
 20 25 l 25
 20 5 l 25
 26 5 l 25
 26 1 l 25
 10 1 l 25
 10 5 l 25
 16 5 l 25
 16 21 l 25
 12 21 l 25
 12 25 l 25
EndSplineSet
Validated: 1
EndChar

StartChar: idieresis
Encoding: 239 239 208
Width: 36
Flags: MW
LayerCount: 2
Back
Fore
SplineSet
20 29 m 5
 20 33 l 5
 24 33 l 5
 24 29 l 5
 20 29 l 5
16 29 m 5
 12 29 l 5
 12 33 l 5
 16 33 l 5
 16 29 l 5
12 25 m 25
 20 25 l 25
 20 5 l 25
 26 5 l 25
 26 1 l 25
 10 1 l 25
 10 5 l 25
 16 5 l 25
 16 21 l 25
 12 21 l 25
 12 25 l 25
EndSplineSet
Validated: 1
EndChar

StartChar: eth
Encoding: 240 240 209
Width: 36
Flags: MW
LayerCount: 2
Back
Fore
SplineSet
26 21 m 29
 10 21 l 29
 10 5 l 29
 26 5 l 29
 26 21 l 29
30 5 m 29
 32 5 l 29
 32 1 l 29
 8 1 l 29
 6 5 l 29
 6 21 l 29
 10 25 l 29
 26 25 l 29
 26 31 l 29
 22 29 l 29
 22 33 l 29
 26 35 l 29
 24 39 l 29
 28 41 l 29
 30 37 l 29
 34 39 l 29
 34 35 l 29
 30 33 l 29
 30 5 l 29
EndSplineSet
Validated: 1
EndChar

StartChar: ntilde
Encoding: 241 241 210
Width: 36
Flags: MW
LayerCount: 2
Back
Fore
SplineSet
4 33 m 25
 4 37 l 25
 8 41 l 25
 16 41 l 25
 20 37 l 25
 20 33 l 25
 28 33 l 25
 28 37 l 25
 32 37 l 25
 32 33 l 25
 28 29 l 25
 20 29 l 25
 16 33 l 25
 16 37 l 25
 8 37 l 25
 8 33 l 25
 4 33 l 25
4 25 m 25
 28 25 l 25
 30 21 l 25
 30 1 l 25
 26 1 l 25
 26 21 l 25
 10 21 l 25
 10 1 l 25
 6 1 l 25
 6 21 l 25
 4 21 l 25
 4 25 l 25
EndSplineSet
Validated: 1
EndChar

StartChar: ograve
Encoding: 242 242 211
Width: 36
Flags: MW
LayerCount: 2
Back
Fore
SplineSet
24 29 m 5
 21 29 l 5
 12 38 l 5
 12 41 l 5
 15 41 l 5
 24 32 l 5
 24 29 l 5
26 21 m 25
 10 21 l 25
 10 5 l 25
 26 5 l 25
 26 21 l 25
6 21 m 25
 10 25 l 25
 26 25 l 25
 30 21 l 25
 30 5 l 25
 26 1 l 25
 10 1 l 25
 6 5 l 25
 6 21 l 25
EndSplineSet
Validated: 1
EndChar

StartChar: oacute
Encoding: 243 243 212
Width: 36
Flags: MW
LayerCount: 2
Back
Fore
SplineSet
12 29 m 5
 12 32 l 5
 21 41 l 5
 24 41 l 5
 24 38 l 5
 15 29 l 5
 12 29 l 5
26 21 m 25
 10 21 l 25
 10 5 l 25
 26 5 l 25
 26 21 l 25
6 21 m 25
 10 25 l 25
 26 25 l 25
 30 21 l 25
 30 5 l 25
 26 1 l 25
 10 1 l 25
 6 5 l 25
 6 21 l 25
EndSplineSet
Validated: 1
EndChar

StartChar: ocircumflex
Encoding: 244 244 213
Width: 36
Flags: MW
LayerCount: 2
Back
Fore
SplineSet
12 29 m 29
 18 41 l 5
 24 29 l 29
 20 29 l 29
 18 33 l 5
 16 29 l 29
 12 29 l 29
26 21 m 25
 10 21 l 25
 10 5 l 25
 26 5 l 25
 26 21 l 25
6 21 m 25
 10 25 l 25
 26 25 l 25
 30 21 l 25
 30 5 l 25
 26 1 l 25
 10 1 l 25
 6 5 l 25
 6 21 l 25
EndSplineSet
Validated: 1
EndChar

StartChar: otilde
Encoding: 245 245 214
Width: 36
Flags: MW
LayerCount: 2
Back
Fore
SplineSet
4 33 m 29
 4 37 l 29
 8 41 l 29
 16 41 l 29
 20 37 l 29
 20 33 l 29
 28 33 l 29
 28 37 l 29
 32 37 l 29
 32 33 l 29
 28 29 l 29
 20 29 l 29
 16 33 l 29
 16 37 l 29
 8 37 l 29
 8 33 l 29
 4 33 l 29
26 21 m 25
 10 21 l 25
 10 5 l 25
 26 5 l 25
 26 21 l 25
6 21 m 25
 10 25 l 25
 26 25 l 25
 30 21 l 25
 30 5 l 25
 26 1 l 25
 10 1 l 25
 6 5 l 25
 6 21 l 25
EndSplineSet
Validated: 1
EndChar

StartChar: odieresis
Encoding: 246 246 215
Width: 36
Flags: MW
LayerCount: 2
Back
Fore
SplineSet
20 29 m 5
 20 33 l 5
 24 33 l 5
 24 29 l 5
 20 29 l 5
16 29 m 5
 12 29 l 5
 12 33 l 5
 16 33 l 5
 16 29 l 5
26 21 m 25
 10 21 l 25
 10 5 l 25
 26 5 l 25
 26 21 l 25
6 21 m 25
 10 25 l 25
 26 25 l 25
 30 21 l 25
 30 5 l 25
 26 1 l 25
 10 1 l 25
 6 5 l 25
 6 21 l 25
EndSplineSet
Validated: 1
EndChar

StartChar: divide
Encoding: 247 247 216
Width: 36
Flags: MW
LayerCount: 2
Back
Fore
SplineSet
16 25 m 29
 16 29 l 25
 20 29 l 25
 20 25 l 25
 16 25 l 29
16 13 m 25
 20 13 l 25
 20 9 l 25
 16 9 l 25
 16 13 l 25
6 21 m 25
 30 21 l 25
 30 17 l 25
 6 17 l 25
 6 21 l 25
EndSplineSet
Validated: 1
EndChar

StartChar: oslash
Encoding: 248 248 217
Width: 36
Flags: MW
LayerCount: 2
Back
Fore
SplineSet
26 5 m 25
 26 18 l 25
 13 5 l 25
 26 5 l 25
10 21 m 29
 10 8 l 25
 24 21 l 25
 10 21 l 29
6 21 m 25
 10 25 l 25
 26 25 l 25
 30 29 l 25
 34 25 l 25
 30 21 l 25
 30 5 l 25
 26 1 l 25
 10 1 l 25
 6 -3 l 25
 2 1 l 25
 6 5 l 25
 6 21 l 25
EndSplineSet
Validated: 1
EndChar

StartChar: ugrave
Encoding: 249 249 218
Width: 36
Flags: MW
LayerCount: 2
Back
Fore
SplineSet
24 29 m 5
 21 29 l 5
 12 38 l 5
 12 41 l 5
 15 41 l 5
 24 32 l 5
 24 29 l 5
6 25 m 25
 10 25 l 25
 10 5 l 25
 26 5 l 25
 26 25 l 25
 30 25 l 25
 30 5 l 25
 32 5 l 25
 32 1 l 25
 8 1 l 25
 6 5 l 25
 6 25 l 25
EndSplineSet
Validated: 1
EndChar

StartChar: uacute
Encoding: 250 250 219
Width: 36
Flags: MW
LayerCount: 2
Back
Fore
SplineSet
12 29 m 5
 12 32 l 5
 21 41 l 5
 24 41 l 5
 24 38 l 5
 15 29 l 5
 12 29 l 5
6 25 m 25
 10 25 l 25
 10 5 l 25
 26 5 l 25
 26 25 l 25
 30 25 l 25
 30 5 l 25
 32 5 l 25
 32 1 l 25
 8 1 l 25
 6 5 l 25
 6 25 l 25
EndSplineSet
Validated: 1
EndChar

StartChar: ucircumflex
Encoding: 251 251 220
Width: 36
Flags: MW
LayerCount: 2
Back
Fore
SplineSet
12 29 m 29
 18 41 l 5
 24 29 l 29
 20 29 l 29
 18 33 l 5
 16 29 l 29
 12 29 l 29
6 25 m 25
 10 25 l 25
 10 5 l 25
 26 5 l 25
 26 25 l 25
 30 25 l 25
 30 5 l 25
 32 5 l 25
 32 1 l 25
 8 1 l 25
 6 5 l 25
 6 25 l 25
EndSplineSet
Validated: 1
EndChar

StartChar: udieresis
Encoding: 252 252 221
Width: 36
Flags: MW
LayerCount: 2
Back
Fore
SplineSet
20 29 m 1
 20 33 l 1
 24 33 l 1
 24 29 l 1
 20 29 l 1
16 29 m 1
 12 29 l 1
 12 33 l 1
 16 33 l 1
 16 29 l 1
6 25 m 25
 10 25 l 25
 10 5 l 25
 26 5 l 25
 26 25 l 25
 30 25 l 25
 30 5 l 25
 32 5 l 25
 32 1 l 25
 8 1 l 25
 6 5 l 25
 6 25 l 25
EndSplineSet
Validated: 1
EndChar

StartChar: yacute
Encoding: 253 253 222
Width: 36
Flags: MW
LayerCount: 2
Back
Fore
SplineSet
12 29 m 5
 12 32 l 5
 21 41 l 5
 24 41 l 5
 24 38 l 5
 15 29 l 5
 12 29 l 5
8 25 m 25
 12 25 l 25
 18 13 l 25
 24 25 l 25
 28 25 l 25
 12 -7 l 25
 6 -7 l 25
 6 -3 l 25
 10 -3 l 1
 16 9 l 25
 8 25 l 25
EndSplineSet
Validated: 1
EndChar

StartChar: thorn
Encoding: 254 254 223
Width: 36
Flags: MW
LayerCount: 2
Back
Fore
SplineSet
8 9 m 29
 28 9 l 29
 28 25 l 29
 8 25 l 29
 8 9 l 29
4 41 m 29
 8 41 l 29
 8 29 l 29
 28 29 l 29
 32 25 l 29
 32 9 l 29
 28 5 l 29
 8 5 l 29
 8 -3 l 29
 4 -3 l 29
 4 41 l 29
EndSplineSet
Validated: 1
EndChar

StartChar: ydieresis
Encoding: 255 255 224
Width: 36
Flags: MW
LayerCount: 2
Back
Fore
SplineSet
20 29 m 5
 20 33 l 5
 24 33 l 5
 24 29 l 5
 20 29 l 5
16 29 m 5
 12 29 l 5
 12 33 l 5
 16 33 l 5
 16 29 l 5
8 25 m 25
 12 25 l 25
 18 13 l 25
 24 25 l 25
 28 25 l 25
 12 -7 l 25
 6 -7 l 25
 6 -3 l 25
 10 -3 l 1
 16 9 l 25
 8 25 l 25
EndSplineSet
Validated: 1
EndChar

StartChar: oe
Encoding: 339 339 225
Width: 36
Flags: MW
LayerCount: 2
Fore
SplineSet
22 1 m 25
 20 3 l 25
 18 1 l 25
 10 1 l 25
 6 5 l 25
 6 21 l 25
 10 25 l 25
 18 25 l 25
 20 23 l 1
 22 25 l 9
 30 25 l 25
 34 21 l 25
 34 13 l 25
 22 13 l 25
 22 5 l 25
 34 5 l 25
 34 1 l 25
 22 1 l 25
22 21 m 25
 22 17 l 25
 30 17 l 25
 30 21 l 25
 22 21 l 25
18 21 m 25
 10 21 l 25
 10 5 l 25
 18 5 l 25
 18 21 l 25
EndSplineSet
Validated: 1
EndChar

StartChar: zcaron
Encoding: 382 382 226
Width: 36
Flags: MW
LayerCount: 2
Fore
SplineSet
12 41 m 25
 16 41 l 25
 18 37 l 1
 20 41 l 25
 24 41 l 25
 18 29 l 1
 12 41 l 25
22 21 m 29
 6 21 l 29
 6 25 l 29
 30 25 l 5
 14 5 l 29
 30 5 l 5
 30 1 l 29
 6 1 l 29
 22 21 l 29
EndSplineSet
Validated: 1
EndChar

StartChar: OE
Encoding: 338 338 227
Width: 36
Flags: MW
LayerCount: 2
Fore
SplineSet
16 37 m 25
 8 37 l 25
 8 5 l 25
 16 5 l 25
 16 37 l 25
8 41 m 25
 32 41 l 25
 32 37 l 25
 20 37 l 25
 20 25 l 25
 28 25 l 25
 28 21 l 25
 20 21 l 25
 20 5 l 25
 32 5 l 25
 32 1 l 25
 8 1 l 25
 4 5 l 25
 4 37 l 25
 8 41 l 25
EndSplineSet
Validated: 1
EndChar

StartChar: Scaron
Encoding: 352 352 228
Width: 36
Flags: MW
LayerCount: 2
Fore
SplineSet
12 57 m 29
 16 57 l 29
 18 53 l 5
 20 57 l 29
 24 57 l 29
 18 45 l 5
 12 57 l 29
30 33 m 25
 26 33 l 25
 26 37 l 25
 10 37 l 25
 8 33 l 25
 8 29 l 25
 10 25 l 25
 26 25 l 25
 30 21 l 25
 32 17 l 25
 32 9 l 25
 30 5 l 25
 26 1 l 25
 10 1 l 25
 6 5 l 25
 6 9 l 25
 10 9 l 25
 10 5 l 25
 26 5 l 25
 28 9 l 25
 28 17 l 25
 26 21 l 25
 10 21 l 25
 6 25 l 25
 4 29 l 25
 4 33 l 25
 6 37 l 25
 10 41 l 25
 26 41 l 25
 30 37 l 25
 30 33 l 25
EndSplineSet
Validated: 1
EndChar

StartChar: scaron
Encoding: 353 353 229
Width: 36
Flags: HMW
LayerCount: 2
Fore
SplineSet
12 41 m 29
 16 41 l 29
 18 37 l 5
 20 41 l 29
 24 41 l 29
 18 29 l 5
 12 41 l 29
28 25 m 25
 28 21 l 25
 10 21 l 25
 10 17 l 25
 28 17 l 25
 30 13 l 25
 30 5 l 25
 26 1 l 25
 6 1 l 25
 6 5 l 25
 26 5 l 25
 26 13 l 25
 8 13 l 25
 6 17 l 25
 6 21 l 25
 8 25 l 25
 28 25 l 25
EndSplineSet
Validated: 1
EndChar

StartChar: Euro
Encoding: 8364 8364 230
Width: 36
Flags: MW
LayerCount: 2
Fore
SplineSet
8 37 m 25
 12 41 l 25
 24 41 l 25
 28 37 l 25
 30 33 l 25
 30 29 l 25
 26 29 l 25
 26 33 l 25
 24 37 l 25
 12 37 l 25
 8 29 l 25
 20 29 l 25
 20 25 l 25
 8 25 l 25
 8 21 l 25
 20 21 l 25
 20 17 l 25
 8 17 l 25
 8 13 l 25
 12 5 l 25
 24 5 l 1
 26 9 l 25
 26 13 l 1
 30 13 l 25
 30 9 l 25
 28 5 l 25
 24 1 l 25
 12 1 l 25
 8 5 l 25
 4 13 l 25
 4 17 l 25
 0 17 l 25
 0 21 l 25
 4 21 l 25
 4 25 l 25
 0 25 l 25
 0 29 l 25
 4 29 l 25
 8 37 l 25
EndSplineSet
Validated: 1
EndChar

StartChar: Zcaron
Encoding: 381 381 231
Width: 36
Flags: MW
LayerCount: 2
Fore
SplineSet
12 57 m 29
 16 57 l 29
 18 53 l 5
 20 57 l 29
 24 57 l 29
 18 45 l 5
 12 57 l 29
4 41 m 25
 28 41 l 25
 12 5 l 25
 30 5 l 25
 30 1 l 25
 6 1 l 25
 22 37 l 25
 4 37 l 25
 4 41 l 25
EndSplineSet
Validated: 1
EndChar

StartChar: Ydieresis
Encoding: 376 376 232
Width: 36
Flags: MW
LayerCount: 2
Fore
SplineSet
20 45 m 1
 20 49 l 1
 24 49 l 1
 24 45 l 1
 20 45 l 1
16 45 m 1
 12 45 l 1
 12 49 l 1
 16 49 l 1
 16 45 l 1
10 41 m 25
 18 25 l 25
 26 41 l 25
 30 41 l 25
 20 21 l 25
 20 1 l 25
 16 1 l 25
 16 21 l 25
 6 41 l 25
 10 41 l 25
EndSplineSet
Validated: 1
EndChar

StartChar: ohungarumlaut
Encoding: 337 337 233
Width: 36
Flags: MW
LayerCount: 2
Fore
SplineSet
18 29 m 1
 18 32 l 5
 27 41 l 1
 30 41 l 1
 30 38 l 1
 21 29 l 1
 18 29 l 1
8 29 m 1
 8 32 l 1
 17 41 l 1
 20 41 l 1
 20 38 l 1
 11 29 l 1
 8 29 l 1
26 21 m 25
 10 21 l 25
 10 5 l 25
 26 5 l 25
 26 21 l 25
6 21 m 25
 10 25 l 25
 26 25 l 25
 30 21 l 25
 30 5 l 25
 26 1 l 25
 10 1 l 25
 6 5 l 25
 6 21 l 25
EndSplineSet
Validated: 1
EndChar

StartChar: uhungarumlaut
Encoding: 369 369 234
Width: 36
Flags: MW
LayerCount: 2
Fore
SplineSet
18 29 m 1
 18 32 l 1
 27 41 l 1
 30 41 l 1
 30 38 l 1
 21 29 l 1
 18 29 l 1
8 29 m 1
 8 32 l 1
 17 41 l 1
 20 41 l 1
 20 38 l 1
 11 29 l 1
 8 29 l 1
6 25 m 29
 10 25 l 29
 10 5 l 29
 26 5 l 29
 26 25 l 29
 30 25 l 29
 30 5 l 29
 32 5 l 29
 32 1 l 29
 8 1 l 29
 6 5 l 29
 6 25 l 29
EndSplineSet
Validated: 1
EndChar

StartChar: sacute
Encoding: 347 347 235
Width: 36
Flags: MW
LayerCount: 2
Fore
SplineSet
12 29 m 1
 12 32 l 1
 21 41 l 1
 24 41 l 1
 24 38 l 1
 15 29 l 1
 12 29 l 1
28 25 m 29
 28 21 l 29
 10 21 l 29
 10 17 l 29
 28 17 l 29
 30 13 l 29
 30 5 l 29
 26 1 l 29
 6 1 l 29
 6 5 l 29
 26 5 l 29
 26 13 l 29
 8 13 l 29
 6 17 l 29
 6 21 l 29
 8 25 l 29
 28 25 l 29
EndSplineSet
Validated: 1
EndChar

StartChar: nacute
Encoding: 324 324 236
Width: 36
Flags: MW
LayerCount: 2
Fore
SplineSet
12 29 m 1
 12 32 l 1
 21 41 l 1
 24 41 l 1
 24 38 l 1
 15 29 l 1
 12 29 l 1
4 25 m 29
 28 25 l 29
 30 21 l 29
 30 1 l 29
 26 1 l 29
 26 21 l 29
 10 21 l 29
 10 1 l 29
 6 1 l 29
 6 21 l 29
 4 21 l 29
 4 25 l 29
EndSplineSet
Validated: 1
EndChar

StartChar: abreve
Encoding: 259 259 237
Width: 36
Flags: HMW
LayerCount: 2
Fore
SplineSet
20 36 m 29
 24 36 l 29
 20 29 l 29
 18 28 l 29
 16 29 l 5
 12 36 l 13
 16 36 l 29
 17 33 l 29
 18 32 l 29
 19 33 l 29
 20 36 l 29
26 13 m 25
 10 13 l 25
 10 5 l 25
 26 5 l 25
 26 13 l 25
8 25 m 25
 28 25 l 25
 30 21 l 25
 30 5 l 25
 32 5 l 25
 32 1 l 25
 8 1 l 25
 6 5 l 25
 6 13 l 25
 10 17 l 25
 26 17 l 25
 26 21 l 25
 8 21 l 25
 8 25 l 25
EndSplineSet
Validated: 1
EndChar

StartChar: cacute
Encoding: 263 263 238
Width: 36
Flags: MW
LayerCount: 2
Fore
SplineSet
12 29 m 5
 12 32 l 5
 21 41 l 5
 24 41 l 5
 24 38 l 5
 15 29 l 5
 12 29 l 5
30 17 m 25
 26 17 l 25
 26 21 l 25
 10 21 l 25
 10 5 l 25
 26 5 l 25
 26 9 l 25
 30 9 l 25
 30 5 l 25
 26 1 l 25
 10 1 l 25
 6 5 l 25
 6 21 l 25
 10 25 l 25
 26 25 l 25
 30 21 l 25
 30 17 l 25
EndSplineSet
Validated: 1
EndChar

StartChar: dcroat
Encoding: 273 273 239
Width: 36
Flags: MW
LayerCount: 2
Fore
SplineSet
26 21 m 25
 10 21 l 25
 10 5 l 25
 26 5 l 25
 26 21 l 25
30 5 m 25
 32 5 l 25
 32 1 l 25
 8 1 l 25
 6 5 l 25
 6 21 l 25
 10 25 l 25
 26 25 l 25
 26 31 l 25
 22 31 l 25
 22 35 l 25
 26 35 l 25
 26 39 l 25
 30 39 l 25
 30 35 l 25
 34 35 l 25
 34 31 l 25
 30 31 l 25
 30 5 l 25
EndSplineSet
Validated: 1
EndChar

StartChar: uni021B
Encoding: 539 539 240
Width: 36
Flags: MW
LayerCount: 2
Fore
SplineSet
14 0 m 29
 22 0 l 29
 22 -8 l 25
 20 -16 l 25
 16 -16 l 25
 18 -8 l 25
 14 -8 l 25
 14 0 l 29
14 41 m 25
 18 41 l 25
 18 29 l 25
 26 29 l 25
 26 25 l 25
 18 25 l 25
 18 5 l 25
 26 5 l 25
 26 9 l 25
 30 9 l 25
 30 5 l 25
 26 1 l 25
 18 1 l 25
 14 5 l 25
 14 25 l 25
 6 25 l 25
 6 29 l 25
 14 29 l 25
 14 41 l 25
EndSplineSet
Validated: 1
EndChar

StartChar: eogonek
Encoding: 281 281 241
Width: 36
Flags: MW
LayerCount: 2
Fore
SplineSet
10 21 m 25
 10 17 l 25
 26 17 l 25
 26 21 l 25
 10 21 l 25
10 1 m 25
 6 5 l 25
 6 21 l 25
 10 25 l 25
 26 25 l 25
 30 21 l 25
 30 13 l 25
 10 13 l 25
 10 5 l 25
 30 5 l 25
 30 1 l 25
 22 1 l 29
 20 -3 l 29
 22 -7 l 29
 18 -7 l 29
 16 -3 l 29
 18 1 l 29
 10 1 l 25
EndSplineSet
Validated: 1
EndChar

StartChar: Uhungarumlaut
Encoding: 368 368 242
Width: 36
Flags: MW
LayerCount: 2
Fore
SplineSet
18 45 m 5
 18 48 l 5
 27 57 l 5
 30 57 l 5
 30 54 l 5
 21 45 l 5
 18 45 l 5
8 45 m 5
 8 48 l 5
 17 57 l 5
 20 57 l 5
 20 54 l 5
 11 45 l 5
 8 45 l 5
4 41 m 25
 8 41 l 25
 8 9 l 25
 10 5 l 25
 26 5 l 25
 28 9 l 25
 28 41 l 25
 32 41 l 25
 32 9 l 25
 30 5 l 25
 26 1 l 25
 10 1 l 25
 6 5 l 25
 4 9 l 25
 4 41 l 25
EndSplineSet
Validated: 1
EndChar

StartChar: Ohungarumlaut
Encoding: 336 336 243
Width: 36
Flags: MW
LayerCount: 2
Fore
SplineSet
18 45 m 5
 18 48 l 5
 27 57 l 5
 30 57 l 5
 30 54 l 5
 21 45 l 5
 18 45 l 5
8 45 m 5
 8 48 l 5
 17 57 l 5
 20 57 l 5
 20 54 l 5
 11 45 l 5
 8 45 l 5
28 37 m 25
 8 37 l 25
 8 5 l 25
 28 5 l 25
 28 37 l 25
4 37 m 25
 8 41 l 25
 28 41 l 25
 32 37 l 25
 32 5 l 25
 28 1 l 25
 8 1 l 25
 4 5 l 25
 4 37 l 25
EndSplineSet
Validated: 1
EndChar

StartChar: Eogonek
Encoding: 280 280 244
Width: 36
Flags: MW
LayerCount: 2
Fore
SplineSet
4 1 m 25
 4 41 l 25
 32 41 l 25
 32 37 l 25
 8 37 l 25
 8 25 l 25
 24 25 l 25
 24 21 l 25
 8 21 l 25
 8 5 l 25
 32 5 l 25
 32 1 l 25
 22 1 l 29
 20 -3 l 29
 22 -7 l 29
 18 -7 l 29
 16 -3 l 29
 18 1 l 29
 4 1 l 25
EndSplineSet
Validated: 1
EndChar

StartChar: uni021A
Encoding: 538 538 245
Width: 36
Flags: MW
LayerCount: 2
Fore
SplineSet
14 0 m 29
 22 0 l 29
 22 -8 l 29
 20 -16 l 29
 16 -16 l 29
 18 -8 l 29
 14 -8 l 29
 14 0 l 29
16 1 m 25
 16 37 l 25
 4 37 l 25
 4 41 l 25
 32 41 l 25
 32 37 l 25
 20 37 l 25
 20 1 l 25
 16 1 l 25
EndSplineSet
Validated: 1
EndChar

StartChar: ccaron
Encoding: 269 269 246
Width: 36
Flags: HMW
LayerCount: 2
Fore
SplineSet
12 41 m 29
 16 41 l 29
 18 37 l 5
 20 41 l 29
 24 41 l 29
 18 29 l 5
 12 41 l 29
30 17 m 25
 26 17 l 25
 26 21 l 25
 10 21 l 25
 10 5 l 25
 26 5 l 25
 26 9 l 25
 30 9 l 25
 30 5 l 25
 26 1 l 25
 10 1 l 25
 6 5 l 25
 6 21 l 25
 10 25 l 25
 26 25 l 25
 30 21 l 25
 30 17 l 25
EndSplineSet
Validated: 1
EndChar

StartChar: uni0219
Encoding: 537 537 247
Width: 36
Flags: MW
LayerCount: 2
Fore
SplineSet
14 0 m 29
 22 0 l 29
 22 -8 l 29
 20 -16 l 29
 16 -16 l 29
 18 -8 l 29
 14 -8 l 29
 14 0 l 29
28 25 m 25
 28 21 l 25
 10 21 l 25
 10 17 l 25
 28 17 l 25
 30 13 l 25
 30 5 l 25
 26 1 l 25
 6 1 l 25
 6 5 l 25
 26 5 l 25
 26 13 l 25
 8 13 l 25
 6 17 l 25
 6 21 l 25
 8 25 l 25
 28 25 l 25
EndSplineSet
Validated: 1
EndChar

StartChar: Sacute
Encoding: 346 346 248
Width: 36
Flags: MW
LayerCount: 2
Fore
SplineSet
12 45 m 1
 12 48 l 1
 21 57 l 1
 24 57 l 1
 24 54 l 1
 15 45 l 1
 12 45 l 1
30 33 m 29
 26 33 l 29
 26 37 l 29
 10 37 l 29
 8 33 l 29
 8 29 l 29
 10 25 l 29
 26 25 l 29
 30 21 l 29
 32 17 l 29
 32 9 l 29
 30 5 l 29
 26 1 l 29
 10 1 l 29
 6 5 l 29
 6 9 l 29
 10 9 l 29
 10 5 l 29
 26 5 l 29
 28 9 l 29
 28 17 l 29
 26 21 l 29
 10 21 l 29
 6 25 l 29
 4 29 l 29
 4 33 l 29
 6 37 l 29
 10 41 l 29
 26 41 l 29
 30 37 l 29
 30 33 l 29
EndSplineSet
Validated: 1
EndChar

StartChar: Nacute
Encoding: 323 323 249
Width: 36
Flags: MW
LayerCount: 2
Fore
SplineSet
12 45 m 5
 12 48 l 5
 21 57 l 5
 24 57 l 5
 24 54 l 5
 15 45 l 5
 12 45 l 5
4 1 m 25
 4 41 l 25
 8 41 l 25
 12 33 l 25
 28 17 l 25
 28 41 l 25
 32 41 l 25
 32 1 l 25
 28 1 l 25
 24 13 l 25
 8 29 l 25
 8 1 l 25
 4 1 l 25
EndSplineSet
Validated: 1
EndChar

StartChar: Dcroat
Encoding: 272 272 250
Width: 36
Flags: MW
LayerCount: 2
Fore
SplineSet
8 37 m 29
 8 25 l 29
 16 25 l 29
 16 21 l 29
 8 21 l 29
 8 5 l 29
 24 5 l 29
 28 9 l 29
 28 33 l 29
 24 37 l 29
 8 37 l 29
4 1 m 29
 4 21 l 29
 0 21 l 29
 0 25 l 29
 4 25 l 29
 4 41 l 29
 24 41 l 29
 32 33 l 29
 32 9 l 29
 24 1 l 29
 4 1 l 29
EndSplineSet
Validated: 1
EndChar

StartChar: uni0218
Encoding: 536 536 251
Width: 36
Flags: MW
LayerCount: 2
Fore
SplineSet
14 0 m 25
 22 0 l 25
 22 -8 l 25
 20 -16 l 25
 16 -16 l 25
 18 -8 l 25
 14 -8 l 25
 14 0 l 25
30 33 m 25
 26 33 l 25
 26 37 l 25
 10 37 l 25
 8 33 l 25
 8 29 l 25
 10 25 l 25
 26 25 l 25
 30 21 l 25
 32 17 l 25
 32 9 l 25
 30 5 l 25
 26 1 l 25
 10 1 l 25
 6 5 l 25
 6 9 l 25
 10 9 l 25
 10 5 l 25
 26 5 l 25
 28 9 l 25
 28 17 l 25
 26 21 l 25
 10 21 l 25
 6 25 l 25
 4 29 l 25
 4 33 l 25
 6 37 l 25
 10 41 l 25
 26 41 l 25
 30 37 l 25
 30 33 l 25
EndSplineSet
Validated: 1
EndChar

StartChar: Zacute
Encoding: 377 377 252
Width: 36
Flags: MW
LayerCount: 2
Fore
SplineSet
12 45 m 5
 12 48 l 5
 21 57 l 5
 24 57 l 5
 24 54 l 5
 15 45 l 5
 12 45 l 5
4 41 m 25
 28 41 l 25
 12 5 l 25
 30 5 l 25
 30 1 l 25
 6 1 l 25
 22 37 l 25
 4 37 l 25
 4 41 l 25
EndSplineSet
Validated: 1
EndChar

StartChar: zacute
Encoding: 378 378 253
Width: 36
Flags: MW
LayerCount: 2
Fore
SplineSet
16 29 m 5
 16 32 l 5
 25 41 l 5
 28 41 l 5
 28 38 l 5
 19 29 l 5
 16 29 l 5
22 21 m 25
 6 21 l 25
 6 25 l 25
 30 25 l 1
 14 5 l 25
 30 5 l 1
 30 1 l 25
 6 1 l 25
 22 21 l 25
EndSplineSet
Validated: 1
EndChar

StartChar: Zdotaccent
Encoding: 379 379 254
Width: 36
Flags: HMW
LayerCount: 2
Fore
SplineSet
14 44 m 25
 14 52 l 25
 22 52 l 25
 22 44 l 25
 14 44 l 25
4 41 m 25
 28 41 l 25
 12 5 l 25
 30 5 l 25
 30 1 l 25
 6 1 l 25
 22 37 l 25
 4 37 l 25
 4 41 l 25
EndSplineSet
Validated: 1
EndChar

StartChar: Ccaron
Encoding: 268 268 255
Width: 36
Flags: HMW
LayerCount: 2
Fore
SplineSet
12 57 m 29
 16 57 l 29
 18 53 l 5
 20 57 l 29
 24 57 l 29
 18 45 l 5
 12 57 l 29
30 29 m 25
 26 29 l 25
 26 33 l 25
 24 37 l 25
 12 37 l 25
 8 29 l 25
 8 13 l 25
 12 5 l 25
 24 5 l 1
 26 9 l 25
 26 13 l 1
 30 13 l 25
 30 9 l 25
 28 5 l 25
 24 1 l 25
 12 1 l 25
 8 5 l 25
 4 13 l 25
 4 29 l 25
 8 37 l 25
 12 41 l 25
 24 41 l 25
 28 37 l 25
 30 33 l 25
 30 29 l 25
EndSplineSet
Validated: 1
EndChar

StartChar: lslash
Encoding: 322 322 256
Width: 36
Flags: MW
LayerCount: 2
Fore
SplineSet
28 5 m 25
 28 1 l 25
 8 1 l 25
 8 5 l 25
 16 5 l 25
 16 18 l 29
 15 17 l 5
 12 17 l 5
 12 20 l 5
 16 24 l 13
 16 37 l 25
 12 37 l 25
 12 41 l 25
 20 41 l 25
 20 28 l 29
 21 29 l 5
 24 29 l 5
 24 26 l 5
 20 22 l 13
 20 5 l 25
 28 5 l 25
EndSplineSet
Validated: 1
EndChar

StartChar: Lslash
Encoding: 321 321 257
Width: 36
Flags: MW
LayerCount: 2
Fore
SplineSet
8 41 m 29
 8 28 l 25
 9 29 l 1
 12 29 l 1
 12 26 l 1
 8 22 l 9
 8 5 l 25
 32 5 l 25
 32 1 l 25
 4 1 l 25
 4 18 l 25
 3 17 l 1
 0 17 l 1
 0 20 l 1
 4 24 l 9
 4 41 l 25
 8 41 l 29
EndSplineSet
Validated: 1
EndChar

StartChar: quotedblbase
Encoding: 8222 8222 258
Width: 36
Flags: MW
LayerCount: 2
Fore
SplineSet
22 -12 m 29
 22 0 l 29
 30 0 l 29
 30 -12 l 29
 22 -12 l 29
6 -12 m 29
 6 0 l 29
 14 0 l 29
 14 -12 l 29
 6 -12 l 29
EndSplineSet
Validated: 1
EndChar

StartChar: quotedblright
Encoding: 8221 8221 259
Width: 36
Flags: MW
LayerCount: 2
Fore
SplineSet
22 29 m 29
 22 41 l 29
 30 41 l 29
 30 29 l 29
 22 29 l 29
6 29 m 29
 6 41 l 29
 14 41 l 29
 14 29 l 29
 6 29 l 29
EndSplineSet
Validated: 1
EndChar

StartChar: quotedblleft
Encoding: 8220 8220 260
Width: 36
Flags: MW
LayerCount: 2
Fore
SplineSet
22 29 m 29
 22 41 l 29
 30 41 l 29
 30 29 l 29
 22 29 l 29
6 29 m 29
 6 41 l 29
 14 41 l 29
 14 29 l 29
 6 29 l 29
EndSplineSet
Validated: 1
EndChar

StartChar: quoteright
Encoding: 8217 8217 261
Width: 36
Flags: MW
LayerCount: 2
Fore
SplineSet
12 25 m 29
 18 41 l 29
 22 41 l 29
 16 25 l 29
 12 25 l 29
EndSplineSet
Validated: 1
EndChar

StartChar: quoteleft
Encoding: 8216 8216 262
Width: 36
Flags: MW
LayerCount: 2
Fore
SplineSet
12 25 m 29
 18 41 l 29
 22 41 l 29
 16 25 l 29
 12 25 l 29
EndSplineSet
Validated: 1
EndChar

StartChar: quotesinglbase
Encoding: 8218 8218 263
Width: 36
Flags: MW
LayerCount: 2
Fore
SplineSet
12 -16 m 25
 18 0 l 25
 22 0 l 25
 16 -16 l 25
 12 -16 l 25
EndSplineSet
Validated: 1
EndChar

StartChar: quotereversed
Encoding: 8219 8219 264
Width: 36
Flags: MW
LayerCount: 2
Fore
SplineSet
22 25 m 29
 18 25 l 29
 12 41 l 29
 16 41 l 29
 22 25 l 29
EndSplineSet
Validated: 1
EndChar

StartChar: uni201F
Encoding: 8223 8223 265
Width: 36
Flags: MW
LayerCount: 2
Fore
SplineSet
22 29 m 29
 22 41 l 29
 30 41 l 29
 30 29 l 29
 22 29 l 29
6 29 m 29
 6 41 l 29
 14 41 l 29
 14 29 l 29
 6 29 l 29
EndSplineSet
Validated: 1
EndChar

StartChar: bullet
Encoding: 8226 8226 266
Width: 36
Flags: MW
LayerCount: 2
Fore
SplineSet
14 21 m 25
 14 29 l 25
 22 29 l 25
 22 21 l 25
 14 21 l 25
EndSplineSet
Validated: 1
EndChar

StartChar: uni2010
Encoding: 8208 8208 267
Width: 36
Flags: MW
LayerCount: 2
Fore
SplineSet
6 21 m 29
 30 21 l 29
 30 17 l 29
 6 17 l 29
 6 21 l 29
EndSplineSet
Validated: 1
EndChar

StartChar: uni2011
Encoding: 8209 8209 268
Width: 36
Flags: MW
LayerCount: 2
Fore
SplineSet
6 21 m 29
 30 21 l 29
 30 17 l 29
 6 17 l 29
 6 21 l 29
EndSplineSet
Validated: 1
EndChar

StartChar: figuredash
Encoding: 8210 8210 269
Width: 36
Flags: MW
LayerCount: 2
Fore
SplineSet
6 21 m 29
 30 21 l 29
 30 17 l 29
 6 17 l 29
 6 21 l 29
EndSplineSet
Validated: 1
EndChar

StartChar: endash
Encoding: 8211 8211 270
Width: 36
Flags: MW
LayerCount: 2
Fore
SplineSet
6 21 m 29
 30 21 l 29
 30 17 l 29
 6 17 l 29
 6 21 l 29
EndSplineSet
Validated: 1
EndChar

StartChar: emdash
Encoding: 8212 8212 271
Width: 36
Flags: MW
LayerCount: 2
Fore
SplineSet
6 21 m 29
 30 21 l 29
 30 17 l 29
 6 17 l 29
 6 21 l 29
EndSplineSet
Validated: 1
EndChar

StartChar: ellipsis
Encoding: 8230 8230 272
Width: 36
Flags: MW
LayerCount: 2
Fore
SplineSet
26 1 m 25
 26 9 l 25
 34 9 l 25
 34 1 l 25
 26 1 l 25
14 1 m 25
 14 9 l 25
 22 9 l 25
 22 1 l 25
 14 1 l 25
2 1 m 25
 2 9 l 25
 10 9 l 25
 10 1 l 25
 2 1 l 25
EndSplineSet
Validated: 1
EndChar

StartChar: trademark
Encoding: 8482 8482 273
Width: 36
Flags: HMW
LayerCount: 2
Fore
SplineSet
20 28 m 29
 20 40 l 29
 24 40 l 29
 26 37 l 29
 28 40 l 29
 32 40 l 29
 32 28 l 29
 29 28 l 29
 29 36 l 29
 26 32 l 29
 23 36 l 29
 23 28 l 29
 20 28 l 29
8 28 m 29
 8 36 l 29
 4 36 l 29
 4 40 l 29
 16 40 l 29
 16 36 l 29
 12 36 l 29
 12 28 l 29
 8 28 l 29
EndSplineSet
Validated: 1
EndChar

StartChar: minus
Encoding: 8722 8722 274
Width: 36
Flags: MW
LayerCount: 2
Fore
SplineSet
6 21 m 29
 30 21 l 29
 30 17 l 29
 6 17 l 29
 6 21 l 29
EndSplineSet
Validated: 1
EndChar

StartChar: Amacron
Encoding: 256 256 275
Width: 36
Flags: HW
LayerCount: 2
Fore
SplineSet
12 45 m 29
 12 49 l 5
 24 49 l 29
 24 45 l 5
 12 45 l 29
28 17 m 25
 28 25 l 25
 22 37 l 25
 14 37 l 25
 8 25 l 25
 8 17 l 25
 28 17 l 25
4 1 m 25
 4 25 l 25
 10 37 l 25
 14 41 l 25
 22 41 l 25
 26 37 l 25
 32 25 l 25
 32 1 l 25
 28 1 l 25
 28 13 l 25
 8 13 l 25
 8 1 l 25
 4 1 l 25
EndSplineSet
Validated: 1
EndChar

StartChar: amacron
Encoding: 257 257 276
Width: 36
Flags: HW
LayerCount: 2
Fore
SplineSet
12 29 m 29
 12 33 l 5
 24 33 l 29
 24 29 l 5
 12 29 l 29
26 13 m 25
 10 13 l 25
 10 5 l 25
 26 5 l 25
 26 13 l 25
8 25 m 25
 28 25 l 25
 30 21 l 25
 30 5 l 25
 32 5 l 25
 32 1 l 25
 8 1 l 25
 6 5 l 25
 6 13 l 25
 10 17 l 25
 26 17 l 25
 26 21 l 25
 8 21 l 25
 8 25 l 25
EndSplineSet
Validated: 1
EndChar

StartChar: Abreve
Encoding: 258 258 277
Width: 36
Flags: HW
LayerCount: 2
Fore
SplineSet
20 52 m 29
 24 52 l 29
 20 45 l 29
 18 44 l 29
 16 45 l 5
 12 52 l 13
 16 52 l 29
 17 49 l 29
 18 48 l 29
 19 49 l 29
 20 52 l 29
28 17 m 25
 28 25 l 25
 22 37 l 25
 14 37 l 25
 8 25 l 25
 8 17 l 25
 28 17 l 25
4 1 m 25
 4 25 l 25
 10 37 l 25
 14 41 l 25
 22 41 l 25
 26 37 l 25
 32 25 l 25
 32 1 l 25
 28 1 l 25
 28 13 l 25
 8 13 l 25
 8 1 l 25
 4 1 l 25
EndSplineSet
Validated: 1
EndChar

StartChar: Aogonek
Encoding: 260 260 278
Width: 36
Flags: HW
LayerCount: 2
Fore
SplineSet
28 17 m 25
 28 25 l 25
 22 37 l 25
 14 37 l 25
 8 25 l 25
 8 17 l 25
 28 17 l 25
28 13 m 25
 8 13 l 25
 8 1 l 25
 4 1 l 25
 4 25 l 25
 10 37 l 25
 14 41 l 25
 22 41 l 25
 26 37 l 25
 32 25 l 25
 32 1 l 25
 30 -3 l 29
 32 -7 l 29
 28 -7 l 29
 26 -3 l 29
 28 1 l 25
 28 13 l 25
EndSplineSet
Validated: 1
EndChar

StartChar: aogonek
Encoding: 261 261 279
Width: 36
Flags: HW
LayerCount: 2
Fore
SplineSet
26 13 m 25
 10 13 l 25
 10 5 l 25
 26 5 l 25
 26 13 l 25
8 1 m 25
 6 5 l 25
 6 13 l 25
 10 17 l 25
 26 17 l 25
 26 21 l 25
 8 21 l 25
 8 25 l 25
 28 25 l 25
 30 21 l 25
 30 5 l 25
 32 5 l 25
 32 1 l 25
 30 -3 l 25
 32 -7 l 25
 28 -7 l 25
 26 -3 l 25
 28 1 l 25
 8 1 l 25
EndSplineSet
Validated: 1
EndChar

StartChar: Cacute
Encoding: 262 262 280
Width: 36
Flags: HW
LayerCount: 2
Fore
SplineSet
12 45 m 1
 12 48 l 1
 21 57 l 1
 24 57 l 1
 24 54 l 1
 15 45 l 1
 12 45 l 1
30 29 m 25
 26 29 l 25
 26 33 l 25
 24 37 l 25
 12 37 l 25
 8 29 l 25
 8 13 l 25
 12 5 l 25
 24 5 l 1
 26 9 l 25
 26 13 l 1
 30 13 l 25
 30 9 l 25
 28 5 l 25
 24 1 l 25
 12 1 l 25
 8 5 l 25
 4 13 l 25
 4 29 l 25
 8 37 l 25
 12 41 l 25
 24 41 l 25
 28 37 l 25
 30 33 l 25
 30 29 l 25
EndSplineSet
Validated: 1
EndChar

StartChar: edotaccent
Encoding: 279 279 281
Width: 36
Flags: HW
LayerCount: 2
Fore
SplineSet
14 28 m 29
 14 36 l 29
 22 36 l 29
 22 28 l 29
 14 28 l 29
10 21 m 25
 10 17 l 25
 26 17 l 25
 26 21 l 25
 10 21 l 25
6 21 m 25
 10 25 l 25
 26 25 l 25
 30 21 l 25
 30 13 l 25
 10 13 l 25
 10 5 l 25
 30 5 l 25
 30 1 l 25
 10 1 l 25
 6 5 l 25
 6 21 l 25
EndSplineSet
Validated: 1
EndChar

StartChar: Edotaccent
Encoding: 278 278 282
Width: 36
Flags: HW
LayerCount: 2
Fore
SplineSet
14 44 m 29
 14 52 l 29
 22 52 l 29
 22 44 l 29
 14 44 l 29
4 1 m 25
 4 41 l 25
 32 41 l 25
 32 37 l 25
 8 37 l 25
 8 25 l 25
 24 25 l 25
 24 21 l 25
 8 21 l 25
 8 5 l 25
 32 5 l 25
 32 1 l 25
 4 1 l 25
EndSplineSet
Validated: 1
EndChar

StartChar: Emacron
Encoding: 274 274 283
Width: 36
Flags: HW
LayerCount: 2
Fore
SplineSet
12 45 m 29
 12 49 l 5
 24 49 l 29
 24 45 l 5
 12 45 l 29
4 1 m 25
 4 41 l 25
 32 41 l 25
 32 37 l 25
 8 37 l 25
 8 25 l 25
 24 25 l 25
 24 21 l 25
 8 21 l 25
 8 5 l 25
 32 5 l 25
 32 1 l 25
 4 1 l 25
EndSplineSet
Validated: 1
EndChar

StartChar: emacron
Encoding: 275 275 284
Width: 36
Flags: HW
LayerCount: 2
Fore
SplineSet
12 29 m 25
 12 33 l 1
 24 33 l 25
 24 29 l 1
 12 29 l 25
10 21 m 25
 10 17 l 25
 26 17 l 25
 26 21 l 25
 10 21 l 25
6 21 m 25
 10 25 l 25
 26 25 l 25
 30 21 l 25
 30 13 l 25
 10 13 l 25
 10 5 l 25
 30 5 l 25
 30 1 l 25
 10 1 l 25
 6 5 l 25
 6 21 l 25
EndSplineSet
Validated: 1
EndChar

StartChar: Ecaron
Encoding: 282 282 285
Width: 36
Flags: HW
LayerCount: 2
Fore
SplineSet
12 57 m 25
 16 57 l 25
 18 53 l 1
 20 57 l 25
 24 57 l 25
 18 45 l 1
 12 57 l 25
4 1 m 25
 4 41 l 25
 32 41 l 25
 32 37 l 25
 8 37 l 25
 8 25 l 25
 24 25 l 25
 24 21 l 25
 8 21 l 25
 8 5 l 25
 32 5 l 25
 32 1 l 25
 4 1 l 25
EndSplineSet
Validated: 1
EndChar

StartChar: ecaron
Encoding: 283 283 286
Width: 36
Flags: HW
LayerCount: 2
Fore
SplineSet
12 41 m 29
 16 41 l 29
 18 37 l 5
 20 41 l 29
 24 41 l 29
 18 29 l 5
 12 41 l 29
10 21 m 25
 10 17 l 25
 26 17 l 25
 26 21 l 25
 10 21 l 25
6 21 m 25
 10 25 l 25
 26 25 l 25
 30 21 l 25
 30 13 l 25
 10 13 l 25
 10 5 l 25
 30 5 l 25
 30 1 l 25
 10 1 l 25
 6 5 l 25
 6 21 l 25
EndSplineSet
Validated: 1
EndChar

StartChar: Gbreve
Encoding: 286 286 287
Width: 36
Flags: HW
LayerCount: 2
Fore
SplineSet
20 52 m 25
 24 52 l 25
 20 45 l 25
 18 44 l 25
 16 45 l 1
 12 52 l 9
 16 52 l 25
 17 49 l 25
 18 48 l 25
 19 49 l 25
 20 52 l 25
20 21 m 29
 32 21 l 29
 32 13 l 29
 28 5 l 29
 24 1 l 29
 12 1 l 29
 8 5 l 29
 4 13 l 29
 4 29 l 29
 8 37 l 29
 12 41 l 29
 24 41 l 29
 28 37 l 29
 30 33 l 29
 30 29 l 29
 26 29 l 29
 26 33 l 29
 24 37 l 29
 12 37 l 29
 8 29 l 29
 8 13 l 29
 12 5 l 29
 24 5 l 29
 28 13 l 29
 28 17 l 29
 20 17 l 29
 20 21 l 29
EndSplineSet
Validated: 1
EndChar

StartChar: gbreve
Encoding: 287 287 288
Width: 36
Flags: HW
LayerCount: 2
Fore
SplineSet
20 36 m 25
 24 36 l 25
 20 29 l 25
 18 28 l 25
 16 29 l 1
 12 36 l 9
 16 36 l 25
 17 33 l 25
 18 32 l 25
 19 33 l 25
 20 36 l 25
10 9 m 29
 26 9 l 29
 26 21 l 29
 10 21 l 29
 10 9 l 29
6 1 m 5
 8 1 l 5
 12 -3 l 5
 26 -3 l 5
 26 5 l 29
 10 5 l 29
 6 9 l 29
 6 21 l 29
 10 25 l 29
 26 25 l 29
 30 21 l 29
 30 -3 l 29
 26 -7 l 29
 10 -7 l 29
 6 -3 l 29
 6 1 l 5
EndSplineSet
Validated: 1
EndChar

StartChar: Gdotaccent
Encoding: 288 288 289
Width: 36
Flags: HW
LayerCount: 2
Fore
SplineSet
14 44 m 25
 14 52 l 25
 22 52 l 25
 22 44 l 25
 14 44 l 25
20 21 m 25
 32 21 l 25
 32 13 l 25
 28 5 l 25
 24 1 l 25
 12 1 l 25
 8 5 l 25
 4 13 l 25
 4 29 l 25
 8 37 l 25
 12 41 l 25
 24 41 l 25
 28 37 l 25
 30 33 l 25
 30 29 l 25
 26 29 l 25
 26 33 l 25
 24 37 l 25
 12 37 l 25
 8 29 l 25
 8 13 l 25
 12 5 l 25
 24 5 l 25
 28 13 l 25
 28 17 l 25
 20 17 l 25
 20 21 l 25
EndSplineSet
Validated: 1
EndChar

StartChar: gdotaccent
Encoding: 289 289 290
Width: 36
Flags: HW
LayerCount: 2
Fore
SplineSet
14 28 m 29
 14 36 l 29
 22 36 l 29
 22 28 l 29
 14 28 l 29
10 9 m 25
 26 9 l 25
 26 21 l 25
 10 21 l 25
 10 9 l 25
6 1 m 1
 8 1 l 1
 12 -3 l 1
 26 -3 l 1
 26 5 l 25
 10 5 l 25
 6 9 l 25
 6 21 l 25
 10 25 l 25
 26 25 l 25
 30 21 l 25
 30 -3 l 25
 26 -7 l 25
 10 -7 l 25
 6 -3 l 25
 6 1 l 1
EndSplineSet
Validated: 1
EndChar

StartChar: uni0122
Encoding: 290 290 291
Width: 36
Flags: HW
LayerCount: 2
Fore
SplineSet
20 0 m 29
 22 -4 l 29
 20 -8 l 29
 16 -8 l 29
 18 -4 l 29
 16 0 l 29
 20 0 l 29
20 21 m 25
 32 21 l 25
 32 13 l 25
 28 5 l 25
 24 1 l 25
 12 1 l 25
 8 5 l 25
 4 13 l 25
 4 29 l 25
 8 37 l 25
 12 41 l 25
 24 41 l 25
 28 37 l 25
 30 33 l 25
 30 29 l 25
 26 29 l 25
 26 33 l 25
 24 37 l 25
 12 37 l 25
 8 29 l 25
 8 13 l 25
 12 5 l 25
 24 5 l 25
 28 13 l 25
 28 17 l 25
 20 17 l 25
 20 21 l 25
EndSplineSet
Validated: 1
EndChar

StartChar: uni0123
Encoding: 291 291 292
Width: 36
Flags: HW
LayerCount: 2
Fore
SplineSet
20 34 m 25
 22 30 l 25
 20 26 l 25
 16 26 l 25
 18 30 l 25
 16 34 l 25
 20 34 l 25
10 9 m 25
 26 9 l 25
 26 21 l 25
 10 21 l 25
 10 9 l 25
6 1 m 1
 8 1 l 1
 12 -3 l 1
 26 -3 l 1
 26 5 l 25
 10 5 l 25
 6 9 l 25
 6 21 l 25
 10 25 l 25
 26 25 l 25
 30 21 l 25
 30 -3 l 25
 26 -7 l 25
 10 -7 l 25
 6 -3 l 25
 6 1 l 1
EndSplineSet
Validated: 1
EndChar

StartChar: Hbar
Encoding: 294 294 293
Width: 36
Flags: HW
LayerCount: 2
Fore
SplineSet
4 41 m 1
 8 41 l 1
 8 33 l 1
 28 33 l 1
 28 41 l 1
 32 41 l 1
 32 33 l 1
 34 33 l 1
 34 30 l 1
 32 30 l 1
 32 1 l 1
 28 1 l 1
 28 21 l 1
 8 21 l 1
 8 1 l 1
 4 1 l 1
 4 30 l 1
 2 30 l 5
 2 33 l 5
 4 33 l 1
 4 41 l 1
8 30 m 1
 8 25 l 1
 28 25 l 1
 28 30 l 1
 8 30 l 1
EndSplineSet
Validated: 1
EndChar

StartChar: hbar
Encoding: 295 295 294
Width: 36
Flags: HW
LayerCount: 2
Fore
SplineSet
6 41 m 1
 10 41 l 1
 10 33 l 1
 14 33 l 1
 14 30 l 1
 10 30 l 1
 10 25 l 1
 26 25 l 1
 30 21 l 1
 30 1 l 1
 26 1 l 1
 26 21 l 1
 10 21 l 1
 10 1 l 1
 6 1 l 1
 6 30 l 1
 2 30 l 1
 2 33 l 1
 6 33 l 1
 6 41 l 1
EndSplineSet
Validated: 1
EndChar

StartChar: Imacron
Encoding: 298 298 295
Width: 36
Flags: HW
LayerCount: 2
Fore
SplineSet
12 45 m 25
 12 49 l 1
 24 49 l 25
 24 45 l 1
 12 45 l 25
8 41 m 29
 28 41 l 29
 28 37 l 29
 20 37 l 29
 20 5 l 29
 28 5 l 29
 28 1 l 29
 8 1 l 29
 8 5 l 29
 16 5 l 29
 16 37 l 29
 8 37 l 29
 8 41 l 29
EndSplineSet
Validated: 1
EndChar

StartChar: lcaron
Encoding: 318 318 296
Width: 36
Flags: HW
LayerCount: 2
Fore
SplineSet
30 41 m 29
 32 37 l 29
 30 33 l 29
 26 33 l 29
 28 37 l 29
 26 41 l 29
 30 41 l 29
12 41 m 25
 20 41 l 25
 20 5 l 25
 28 5 l 25
 28 1 l 25
 8 1 l 25
 8 5 l 25
 16 5 l 25
 16 37 l 25
 12 37 l 25
 12 41 l 25
EndSplineSet
Validated: 1
EndChar

StartChar: imacron
Encoding: 299 299 297
Width: 36
Flags: HW
LayerCount: 2
Fore
SplineSet
12 29 m 25
 12 33 l 1
 24 33 l 25
 24 29 l 1
 12 29 l 25
12 25 m 29
 20 25 l 29
 20 5 l 29
 26 5 l 29
 26 1 l 29
 10 1 l 29
 10 5 l 29
 16 5 l 29
 16 21 l 29
 12 21 l 29
 12 25 l 29
EndSplineSet
Validated: 1
EndChar

StartChar: Iogonek
Encoding: 302 302 298
Width: 36
Flags: HW
LayerCount: 2
Fore
SplineSet
8 41 m 1
 28 41 l 1
 28 37 l 1
 20 37 l 1
 20 5 l 1
 28 5 l 1
 28 1 l 1
 26 -3 l 1
 28 -7 l 1
 24 -7 l 1
 22 -3 l 1
 24 1 l 1
 8 1 l 1
 8 5 l 1
 16 5 l 1
 16 37 l 1
 8 37 l 1
 8 41 l 1
EndSplineSet
Validated: 1
EndChar

StartChar: iogonek
Encoding: 303 303 299
Width: 36
Flags: HW
LayerCount: 2
Fore
SplineSet
12 25 m 1
 20 25 l 1
 20 5 l 1
 26 5 l 1
 26 1 l 1
 24 -3 l 5
 26 -7 l 1
 22 -7 l 1
 20 -3 l 5
 22 1 l 1
 10 1 l 1
 10 5 l 1
 16 5 l 1
 16 21 l 1
 12 21 l 1
 12 25 l 1
16 29 m 1
 16 33 l 1
 20 33 l 1
 20 29 l 1
 16 29 l 1
EndSplineSet
Validated: 1
EndChar

StartChar: Idotaccent
Encoding: 304 304 300
Width: 36
Flags: HW
LayerCount: 2
Fore
SplineSet
14 44 m 29
 14 52 l 29
 22 52 l 29
 22 44 l 29
 14 44 l 29
8 41 m 25
 28 41 l 25
 28 37 l 25
 20 37 l 25
 20 5 l 25
 28 5 l 25
 28 1 l 25
 8 1 l 25
 8 5 l 25
 16 5 l 25
 16 37 l 25
 8 37 l 25
 8 41 l 25
EndSplineSet
Validated: 1
EndChar

StartChar: dotlessi
Encoding: 305 305 301
Width: 36
Flags: HW
LayerCount: 2
Fore
SplineSet
12 25 m 25
 20 25 l 25
 20 5 l 25
 26 5 l 25
 26 1 l 25
 10 1 l 25
 10 5 l 25
 16 5 l 25
 16 21 l 25
 12 21 l 25
 12 25 l 25
EndSplineSet
Validated: 1
EndChar

StartChar: uni0136
Encoding: 310 310 302
Width: 36
Flags: HW
LayerCount: 2
Fore
SplineSet
20 0 m 29
 22 -4 l 29
 20 -8 l 29
 16 -8 l 29
 18 -4 l 29
 16 0 l 29
 20 0 l 29
4 41 m 25
 8 41 l 25
 8 25 l 1
 24 41 l 1
 27 38 l 1
 12 23 l 1
 31 4 l 1
 28 1 l 1
 8 21 l 25
 8 1 l 25
 4 1 l 25
 4 41 l 25
EndSplineSet
Validated: 1
EndChar

StartChar: uni0137
Encoding: 311 311 303
Width: 36
Flags: HW
LayerCount: 2
Fore
SplineSet
20 0 m 29
 22 -4 l 29
 20 -8 l 29
 16 -8 l 29
 18 -4 l 29
 16 0 l 29
 20 0 l 29
8 1 m 25
 8 41 l 25
 12 41 l 25
 12 17 l 25
 24 29 l 25
 27 26 l 25
 16 15 l 25
 27 4 l 25
 24 1 l 25
 12 13 l 25
 12 1 l 25
 8 1 l 25
EndSplineSet
Validated: 1
EndChar

StartChar: Lacute
Encoding: 313 313 304
Width: 36
Flags: HW
LayerCount: 2
Fore
SplineSet
16 44 m 1
 16 47 l 1
 25 56 l 1
 28 56 l 1
 28 53 l 1
 19 44 l 1
 16 44 l 1
4 41 m 29
 8 41 l 29
 8 5 l 29
 32 5 l 29
 32 1 l 29
 4 1 l 29
 4 41 l 29
EndSplineSet
Validated: 1
EndChar

StartChar: lacute
Encoding: 314 314 305
Width: 36
Flags: HW
LayerCount: 2
Fore
SplineSet
16 44 m 1
 16 47 l 1
 25 56 l 1
 28 56 l 1
 28 53 l 1
 19 44 l 1
 16 44 l 1
12 41 m 29
 20 41 l 29
 20 5 l 29
 28 5 l 29
 28 1 l 29
 8 1 l 29
 8 5 l 29
 16 5 l 29
 16 37 l 29
 12 37 l 29
 12 41 l 29
EndSplineSet
Validated: 1
EndChar

StartChar: uni013B
Encoding: 315 315 306
Width: 36
Flags: HW
LayerCount: 2
Fore
SplineSet
20 0 m 29
 22 -4 l 29
 20 -8 l 29
 16 -8 l 29
 18 -4 l 29
 16 0 l 29
 20 0 l 29
4 41 m 25
 8 41 l 25
 8 5 l 25
 32 5 l 25
 32 1 l 25
 4 1 l 25
 4 41 l 25
EndSplineSet
Validated: 1
EndChar

StartChar: uni013C
Encoding: 316 316 307
Width: 36
Flags: HW
LayerCount: 2
Fore
SplineSet
20 0 m 25
 22 -4 l 25
 20 -8 l 25
 16 -8 l 25
 18 -4 l 25
 16 0 l 25
 20 0 l 25
12 41 m 29
 20 41 l 29
 20 5 l 29
 28 5 l 29
 28 1 l 29
 8 1 l 29
 8 5 l 29
 16 5 l 29
 16 37 l 29
 12 37 l 29
 12 41 l 29
EndSplineSet
Validated: 1
EndChar

StartChar: Lcaron
Encoding: 317 317 308
Width: 36
Flags: HW
LayerCount: 2
Fore
SplineSet
30 41 m 25
 32 37 l 25
 30 33 l 25
 26 33 l 25
 28 37 l 25
 26 41 l 25
 30 41 l 25
4 41 m 25
 8 41 l 25
 8 5 l 25
 32 5 l 25
 32 1 l 25
 4 1 l 25
 4 41 l 25
EndSplineSet
Validated: 1
EndChar

StartChar: uni0145
Encoding: 325 325 309
Width: 36
Flags: HW
LayerCount: 2
Fore
SplineSet
20 0 m 29
 22 -4 l 25
 20 -8 l 25
 16 -8 l 25
 18 -4 l 25
 16 0 l 29
 20 0 l 29
4 1 m 29
 4 41 l 29
 8 41 l 29
 12 33 l 29
 28 17 l 29
 28 41 l 29
 32 41 l 29
 32 1 l 29
 28 1 l 29
 24 13 l 29
 8 29 l 29
 8 1 l 29
 4 1 l 29
EndSplineSet
Validated: 1
EndChar

StartChar: uni0146
Encoding: 326 326 310
Width: 36
Flags: HW
LayerCount: 2
Fore
SplineSet
20 0 m 25
 22 -4 l 25
 20 -8 l 25
 16 -8 l 25
 18 -4 l 25
 16 0 l 25
 20 0 l 25
4 25 m 29
 28 25 l 29
 30 21 l 29
 30 1 l 29
 26 1 l 29
 26 21 l 29
 10 21 l 29
 10 1 l 29
 6 1 l 29
 6 21 l 29
 4 21 l 29
 4 25 l 29
EndSplineSet
Validated: 1
EndChar

StartChar: Ncaron
Encoding: 327 327 311
Width: 36
Flags: HW
LayerCount: 2
Fore
SplineSet
12 57 m 29
 16 57 l 29
 18 53 l 5
 20 57 l 29
 24 57 l 29
 18 45 l 5
 12 57 l 29
4 1 m 25
 4 41 l 25
 8 41 l 25
 12 33 l 25
 28 17 l 25
 28 41 l 25
 32 41 l 25
 32 1 l 25
 28 1 l 25
 24 13 l 25
 8 29 l 25
 8 1 l 25
 4 1 l 25
EndSplineSet
Validated: 1
EndChar

StartChar: ncaron
Encoding: 328 328 312
Width: 36
Flags: HW
LayerCount: 2
Fore
SplineSet
12 41 m 29
 16 41 l 29
 18 37 l 5
 20 41 l 29
 24 41 l 29
 18 29 l 5
 12 41 l 29
4 25 m 25
 28 25 l 25
 30 21 l 25
 30 1 l 25
 26 1 l 25
 26 21 l 25
 10 21 l 25
 10 1 l 25
 6 1 l 25
 6 21 l 25
 4 21 l 25
 4 25 l 25
EndSplineSet
Validated: 1
EndChar

StartChar: Racute
Encoding: 340 340 313
Width: 36
Flags: HW
LayerCount: 2
Fore
SplineSet
12 45 m 5
 12 48 l 5
 21 57 l 5
 24 57 l 5
 24 54 l 5
 15 45 l 5
 12 45 l 5
8 25 m 25
 28 25 l 25
 28 37 l 25
 8 37 l 25
 8 25 l 25
4 1 m 25
 4 41 l 25
 28 41 l 25
 32 37 l 25
 32 25 l 25
 28 21 l 25
 16 21 l 25
 32 5 l 25
 32 1 l 25
 28 1 l 25
 8 21 l 25
 8 1 l 25
 4 1 l 25
EndSplineSet
Validated: 1
EndChar

StartChar: racute
Encoding: 341 341 314
Width: 36
Flags: HW
LayerCount: 2
Fore
SplineSet
12 29 m 1
 12 32 l 1
 21 41 l 1
 24 41 l 1
 24 38 l 1
 15 29 l 1
 12 29 l 1
6 1 m 29
 6 25 l 29
 10 25 l 29
 10 21 l 29
 14 25 l 29
 26 25 l 29
 30 21 l 29
 30 17 l 29
 26 17 l 29
 26 21 l 29
 14 21 l 29
 10 17 l 29
 10 1 l 29
 6 1 l 29
EndSplineSet
Validated: 1
EndChar

StartChar: Rcaron
Encoding: 344 344 316
Width: 36
Flags: HW
LayerCount: 2
Fore
SplineSet
12 57 m 25
 16 57 l 25
 18 53 l 1
 20 57 l 25
 24 57 l 25
 18 45 l 1
 12 57 l 25
8 25 m 25
 28 25 l 25
 28 37 l 25
 8 37 l 25
 8 25 l 25
4 1 m 25
 4 41 l 25
 28 41 l 25
 32 37 l 25
 32 25 l 25
 28 21 l 25
 16 21 l 25
 32 5 l 25
 32 1 l 25
 28 1 l 25
 8 21 l 25
 8 1 l 25
 4 1 l 25
EndSplineSet
Validated: 1
EndChar

StartChar: rcaron
Encoding: 345 345 317
Width: 36
Flags: HW
LayerCount: 2
Fore
SplineSet
12 41 m 25
 16 41 l 25
 18 37 l 1
 20 41 l 25
 24 41 l 25
 18 29 l 1
 12 41 l 25
6 1 m 25
 6 25 l 25
 10 25 l 25
 10 21 l 25
 14 25 l 25
 26 25 l 25
 30 21 l 25
 30 17 l 25
 26 17 l 25
 26 21 l 25
 14 21 l 25
 10 17 l 25
 10 1 l 25
 6 1 l 25
EndSplineSet
Validated: 1
EndChar

StartChar: Scedilla
Encoding: 350 350 318
Width: 36
Flags: HW
LayerCount: 2
Fore
SplineSet
20 0 m 29
 22 -4 l 29
 20 -8 l 29
 16 -8 l 29
 18 -4 l 29
 16 0 l 29
 20 0 l 29
30 33 m 25
 26 33 l 25
 26 37 l 25
 10 37 l 25
 8 33 l 25
 8 29 l 25
 10 25 l 25
 26 25 l 25
 30 21 l 25
 32 17 l 25
 32 9 l 25
 30 5 l 25
 26 1 l 25
 10 1 l 25
 6 5 l 25
 6 9 l 25
 10 9 l 25
 10 5 l 25
 26 5 l 25
 28 9 l 25
 28 17 l 25
 26 21 l 25
 10 21 l 25
 6 25 l 25
 4 29 l 25
 4 33 l 25
 6 37 l 25
 10 41 l 25
 26 41 l 25
 30 37 l 25
 30 33 l 25
EndSplineSet
Validated: 1
EndChar

StartChar: scedilla
Encoding: 351 351 319
Width: 36
Flags: HW
LayerCount: 2
Fore
SplineSet
20 0 m 29
 22 -4 l 29
 20 -8 l 29
 16 -8 l 29
 18 -4 l 29
 16 0 l 29
 20 0 l 29
28 25 m 25
 28 21 l 25
 10 21 l 25
 10 17 l 25
 28 17 l 25
 30 13 l 25
 30 5 l 25
 26 1 l 25
 6 1 l 25
 6 5 l 25
 26 5 l 25
 26 13 l 25
 8 13 l 25
 6 17 l 25
 6 21 l 25
 8 25 l 25
 28 25 l 25
EndSplineSet
Validated: 1
EndChar

StartChar: tcaron
Encoding: 357 357 320
Width: 36
Flags: HW
LayerCount: 2
Fore
SplineSet
30 41 m 25
 32 37 l 25
 30 33 l 25
 26 33 l 25
 28 37 l 25
 26 41 l 25
 30 41 l 25
14 41 m 25
 18 41 l 25
 18 29 l 25
 26 29 l 25
 26 25 l 25
 18 25 l 25
 18 5 l 25
 26 5 l 25
 26 9 l 25
 30 9 l 25
 30 5 l 25
 26 1 l 25
 18 1 l 25
 14 5 l 25
 14 25 l 25
 6 25 l 25
 6 29 l 25
 14 29 l 25
 14 41 l 25
EndSplineSet
Validated: 1
EndChar

StartChar: Tcaron
Encoding: 356 356 321
Width: 36
Flags: HW
LayerCount: 2
Fore
SplineSet
16 1 m 29
 16 37 l 29
 4 37 l 29
 4 41 l 29
 32 41 l 29
 32 37 l 29
 20 37 l 29
 20 1 l 29
 16 1 l 29
EndSplineSet
Validated: 1
EndChar

StartChar: umacron
Encoding: 363 363 322
Width: 36
Flags: HW
LayerCount: 2
Fore
SplineSet
12 29 m 25
 12 33 l 1
 24 33 l 25
 24 29 l 1
 12 29 l 25
6 25 m 29
 10 25 l 29
 10 5 l 29
 26 5 l 29
 26 25 l 29
 30 25 l 29
 30 5 l 29
 32 5 l 29
 32 1 l 29
 8 1 l 29
 6 5 l 29
 6 25 l 29
EndSplineSet
Validated: 1
EndChar

StartChar: Umacron
Encoding: 362 362 323
Width: 36
Flags: HW
LayerCount: 2
Fore
SplineSet
12 45 m 29
 12 49 l 5
 24 49 l 29
 24 45 l 5
 12 45 l 29
4 41 m 25
 8 41 l 25
 8 9 l 25
 10 5 l 25
 26 5 l 25
 28 9 l 25
 28 41 l 25
 32 41 l 25
 32 9 l 25
 30 5 l 25
 26 1 l 25
 10 1 l 25
 6 5 l 25
 4 9 l 25
 4 41 l 25
EndSplineSet
Validated: 1
EndChar

StartChar: Uring
Encoding: 366 366 324
Width: 36
Flags: HW
LayerCount: 2
Fore
SplineSet
20 53 m 29
 16 53 l 29
 16 49 l 29
 20 49 l 29
 20 53 l 29
12 53 m 29
 16 57 l 29
 20 57 l 29
 24 53 l 29
 24 49 l 29
 20 45 l 29
 16 45 l 29
 12 49 l 29
 12 53 l 29
4 41 m 25
 8 41 l 25
 8 9 l 25
 10 5 l 25
 26 5 l 25
 28 9 l 25
 28 41 l 25
 32 41 l 25
 32 9 l 25
 30 5 l 25
 26 1 l 25
 10 1 l 25
 6 5 l 25
 4 9 l 25
 4 41 l 25
EndSplineSet
Validated: 1
EndChar

StartChar: uring
Encoding: 367 367 325
Width: 36
Flags: HW
LayerCount: 2
Fore
SplineSet
20 37 m 29
 16 37 l 29
 16 33 l 29
 20 33 l 29
 20 37 l 29
12 37 m 29
 16 41 l 29
 20 41 l 29
 24 37 l 29
 24 33 l 29
 20 29 l 29
 16 29 l 29
 12 33 l 29
 12 37 l 29
6 25 m 25
 10 25 l 25
 10 5 l 25
 26 5 l 25
 26 25 l 25
 30 25 l 25
 30 5 l 25
 32 5 l 25
 32 1 l 25
 8 1 l 25
 6 5 l 25
 6 25 l 25
EndSplineSet
Validated: 1
EndChar

StartChar: Uogonek
Encoding: 370 370 326
Width: 36
Flags: HW
LayerCount: 2
Fore
SplineSet
4 41 m 1
 8 41 l 1
 8 9 l 1
 10 5 l 1
 26 5 l 1
 28 9 l 1
 28 41 l 1
 32 41 l 1
 32 9 l 1
 30 5 l 1
 26 1 l 1
 22 1 l 1
 20 -3 l 1
 22 -7 l 1
 18 -7 l 1
 16 -3 l 1
 18 1 l 1
 10 1 l 1
 6 5 l 1
 4 9 l 1
 4 41 l 1
EndSplineSet
Validated: 1
EndChar

StartChar: uogonek
Encoding: 371 371 327
Width: 36
Flags: HW
LayerCount: 2
Fore
SplineSet
6 25 m 1
 10 25 l 1
 10 5 l 1
 26 5 l 1
 26 25 l 1
 30 25 l 1
 30 5 l 1
 32 5 l 1
 32 1 l 5
 30 -3 l 5
 32 -7 l 5
 28 -7 l 5
 26 -3 l 5
 28 1 l 5
 8 1 l 1
 6 5 l 1
 6 25 l 1
EndSplineSet
Validated: 1
EndChar

StartChar: Wcircumflex
Encoding: 372 372 328
Width: 36
Flags: HW
LayerCount: 2
Fore
SplineSet
12 45 m 29
 18 57 l 5
 24 45 l 29
 20 45 l 29
 18 49 l 5
 16 45 l 29
 12 45 l 29
4 41 m 25
 8 41 l 25
 8 7 l 25
 16 15 l 25
 16 21 l 25
 20 21 l 25
 20 15 l 25
 28 7 l 25
 28 41 l 25
 32 41 l 25
 32 1 l 25
 28 1 l 25
 18 11 l 25
 8 1 l 25
 4 1 l 25
 4 41 l 25
EndSplineSet
Validated: 1
EndChar

StartChar: wcircumflex
Encoding: 373 373 329
Width: 36
Flags: HW
LayerCount: 2
Fore
SplineSet
12 29 m 29
 18 41 l 5
 24 29 l 29
 20 29 l 29
 18 33 l 5
 16 29 l 29
 12 29 l 29
4 25 m 25
 8 25 l 25
 8 13 l 25
 12 5 l 25
 16 13 l 25
 16 17 l 25
 20 17 l 25
 20 13 l 25
 24 5 l 25
 28 13 l 25
 28 25 l 25
 32 25 l 25
 32 13 l 25
 26 1 l 25
 22 1 l 25
 18 9 l 25
 14 1 l 25
 10 1 l 25
 4 13 l 25
 4 25 l 25
EndSplineSet
Validated: 1
EndChar

StartChar: Ycircumflex
Encoding: 374 374 330
Width: 36
Flags: HW
LayerCount: 2
Fore
SplineSet
12 45 m 29
 18 57 l 5
 24 45 l 29
 20 45 l 29
 18 49 l 5
 16 45 l 29
 12 45 l 29
10 41 m 25
 18 25 l 25
 26 41 l 25
 30 41 l 25
 20 21 l 25
 20 1 l 25
 16 1 l 25
 16 21 l 25
 6 41 l 25
 10 41 l 25
EndSplineSet
Validated: 1
EndChar

StartChar: ycircumflex
Encoding: 375 375 331
Width: 36
Flags: HW
LayerCount: 2
Fore
SplineSet
12 29 m 29
 18 41 l 5
 24 29 l 29
 20 29 l 29
 18 33 l 5
 16 29 l 29
 12 29 l 29
8 25 m 25
 12 25 l 25
 18 13 l 25
 24 25 l 25
 28 25 l 25
 12 -7 l 25
 6 -7 l 25
 6 -3 l 25
 10 -3 l 1
 16 9 l 25
 8 25 l 25
EndSplineSet
Validated: 1
EndChar

StartChar: zdotaccent
Encoding: 380 380 332
Width: 36
Flags: HW
LayerCount: 2
Fore
SplineSet
14 28 m 25
 14 36 l 25
 22 36 l 25
 22 28 l 25
 14 28 l 25
22 21 m 25
 6 21 l 25
 6 25 l 25
 30 25 l 1
 14 5 l 25
 30 5 l 1
 30 1 l 25
 6 1 l 25
 22 21 l 25
EndSplineSet
Validated: 1
EndChar

StartChar: uni0237
Encoding: 567 567 333
Width: 36
Flags: HW
LayerCount: 2
Fore
SplineSet
18 25 m 29
 26 25 l 29
 26 1 l 29
 24 -3 l 29
 20 -7 l 29
 12 -7 l 29
 8 -3 l 29
 8 1 l 29
 12 1 l 29
 12 -3 l 29
 20 -3 l 29
 22 1 l 29
 22 21 l 29
 18 21 l 29
 18 25 l 29
EndSplineSet
Validated: 1
EndChar

StartChar: circumflex
Encoding: 710 710 334
Width: 36
Flags: HW
LayerCount: 2
Fore
SplineSet
12 45 m 29
 18 57 l 5
 24 45 l 29
 20 45 l 29
 18 49 l 5
 16 45 l 29
 12 45 l 29
EndSplineSet
Validated: 1
EndChar

StartChar: caron
Encoding: 711 711 335
Width: 36
Flags: HW
LayerCount: 2
Fore
SplineSet
12 57 m 25
 16 57 l 25
 18 53 l 1
 20 57 l 25
 24 57 l 25
 18 45 l 1
 12 57 l 25
EndSplineSet
Validated: 1
EndChar

StartChar: breve
Encoding: 728 728 336
Width: 36
Flags: HW
LayerCount: 2
Fore
SplineSet
20 52 m 29
 24 52 l 29
 20 45 l 29
 18 44 l 29
 16 45 l 5
 12 52 l 13
 16 52 l 29
 17 49 l 29
 18 48 l 29
 19 49 l 29
 20 52 l 29
EndSplineSet
Validated: 1
EndChar

StartChar: dotaccent
Encoding: 729 729 337
Width: 36
Flags: HW
LayerCount: 2
Fore
SplineSet
14 44 m 29
 14 52 l 29
 22 52 l 29
 22 44 l 29
 14 44 l 29
EndSplineSet
Validated: 1
EndChar

StartChar: ring
Encoding: 730 730 338
Width: 36
Flags: HW
LayerCount: 2
Fore
SplineSet
20 53 m 29
 16 53 l 29
 16 49 l 29
 20 49 l 29
 20 53 l 29
12 53 m 29
 16 57 l 29
 20 57 l 29
 24 53 l 29
 24 49 l 29
 20 45 l 29
 16 45 l 29
 12 49 l 29
 12 53 l 29
EndSplineSet
Validated: 1
EndChar

StartChar: ogonek
Encoding: 731 731 339
Width: 36
Flags: HW
LayerCount: 2
Fore
SplineSet
22 1 m 29
 20 -3 l 29
 22 -7 l 29
 18 -7 l 29
 16 -3 l 29
 18 1 l 29
 22 1 l 29
EndSplineSet
Validated: 1
EndChar

StartChar: tilde
Encoding: 732 732 340
Width: 36
Flags: HW
LayerCount: 2
Fore
SplineSet
8 49 m 25
 8 53 l 25
 12 57 l 25
 16 57 l 25
 20 53 l 25
 20 49 l 25
 24 49 l 25
 24 53 l 25
 28 53 l 25
 28 49 l 25
 24 45 l 25
 20 45 l 25
 16 49 l 25
 16 53 l 25
 12 53 l 25
 12 49 l 25
 8 49 l 25
EndSplineSet
Validated: 1
EndChar

StartChar: hungarumlaut
Encoding: 733 733 341
Width: 36
Flags: HW
LayerCount: 2
Fore
SplineSet
18 45 m 5
 18 48 l 5
 27 57 l 5
 30 57 l 5
 30 54 l 5
 21 45 l 5
 18 45 l 5
8 45 m 5
 8 48 l 5
 17 57 l 5
 20 57 l 5
 20 54 l 5
 11 45 l 5
 8 45 l 5
EndSplineSet
Validated: 1
EndChar

StartChar: gravecomb
Encoding: 768 768 342
Width: 36
Flags: HW
LayerCount: 2
Fore
SplineSet
24 45 m 5
 21 45 l 5
 12 54 l 5
 12 57 l 5
 15 57 l 5
 24 48 l 5
 24 45 l 5
EndSplineSet
Validated: 1
EndChar

StartChar: acutecomb
Encoding: 769 769 343
Width: 36
Flags: HW
LayerCount: 2
Fore
SplineSet
12 45 m 5
 12 48 l 5
 21 57 l 5
 24 57 l 5
 24 54 l 5
 15 45 l 5
 12 45 l 5
EndSplineSet
Validated: 1
EndChar

StartChar: uni0302
Encoding: 770 770 344
Width: 36
Flags: HW
LayerCount: 2
Fore
SplineSet
12 45 m 29
 18 57 l 5
 24 45 l 29
 20 45 l 29
 18 49 l 5
 16 45 l 29
 12 45 l 29
EndSplineSet
Validated: 1
EndChar

StartChar: tildecomb
Encoding: 771 771 345
Width: 36
Flags: HW
LayerCount: 2
Fore
SplineSet
4 49 m 29
 4 53 l 29
 8 57 l 29
 16 57 l 29
 20 53 l 29
 20 49 l 29
 28 49 l 29
 28 53 l 29
 32 53 l 29
 32 49 l 29
 28 45 l 29
 20 45 l 29
 16 49 l 29
 16 53 l 29
 8 53 l 29
 8 49 l 29
 4 49 l 29
EndSplineSet
Validated: 1
EndChar

StartChar: uni0304
Encoding: 772 772 346
Width: 36
Flags: HW
LayerCount: 2
Fore
SplineSet
12 45 m 29
 12 49 l 5
 24 49 l 29
 24 45 l 5
 12 45 l 29
EndSplineSet
Validated: 1
EndChar

StartChar: uni0306
Encoding: 774 774 347
Width: 36
Flags: HW
LayerCount: 2
Fore
SplineSet
20 52 m 29
 24 52 l 29
 20 45 l 29
 18 44 l 29
 16 45 l 5
 12 52 l 13
 16 52 l 29
 17 49 l 29
 18 48 l 29
 19 49 l 29
 20 52 l 29
EndSplineSet
Validated: 1
EndChar

StartChar: uni0307
Encoding: 775 775 348
Width: 36
Flags: HW
LayerCount: 2
Fore
SplineSet
14 44 m 25
 14 52 l 25
 22 52 l 25
 22 44 l 25
 14 44 l 25
EndSplineSet
Validated: 1
EndChar

StartChar: uni0308
Encoding: 776 776 349
Width: 36
Flags: HW
LayerCount: 2
Fore
SplineSet
20 45 m 5
 20 49 l 5
 24 49 l 5
 24 45 l 5
 20 45 l 5
16 45 m 5
 12 45 l 5
 12 49 l 5
 16 49 l 5
 16 45 l 5
EndSplineSet
Validated: 1
EndChar

StartChar: uni030A
Encoding: 778 778 350
Width: 36
Flags: HW
LayerCount: 2
Fore
SplineSet
20 53 m 29
 16 53 l 29
 16 49 l 29
 20 49 l 29
 20 53 l 29
12 53 m 29
 16 57 l 29
 20 57 l 29
 24 53 l 29
 24 49 l 29
 20 45 l 29
 16 45 l 29
 12 49 l 29
 12 53 l 29
EndSplineSet
Validated: 1
EndChar

StartChar: uni030B
Encoding: 779 779 351
Width: 36
Flags: HW
LayerCount: 2
Fore
SplineSet
18 45 m 5
 18 48 l 5
 27 57 l 5
 30 57 l 5
 30 54 l 5
 21 45 l 5
 18 45 l 5
8 45 m 5
 8 48 l 5
 17 57 l 5
 20 57 l 5
 20 54 l 5
 11 45 l 5
 8 45 l 5
EndSplineSet
Validated: 1
EndChar

StartChar: uni030C
Encoding: 780 780 352
Width: 36
Flags: HW
LayerCount: 2
Fore
SplineSet
12 57 m 25
 16 57 l 25
 18 53 l 1
 20 57 l 25
 24 57 l 25
 18 45 l 1
 12 57 l 25
EndSplineSet
Validated: 1
EndChar

StartChar: uni0326
Encoding: 806 806 353
Width: 36
Flags: HW
LayerCount: 2
Fore
SplineSet
14 0 m 29
 22 0 l 29
 22 -8 l 29
 20 -16 l 29
 16 -16 l 29
 18 -8 l 29
 14 -8 l 29
 14 0 l 29
EndSplineSet
Validated: 1
EndChar

StartChar: uni0327
Encoding: 807 807 354
Width: 36
Flags: HW
LayerCount: 2
Fore
SplineSet
20 1 m 29
 22 -3 l 29
 20 -7 l 29
 16 -7 l 29
 18 -3 l 29
 16 1 l 29
 20 1 l 29
EndSplineSet
Validated: 1
EndChar

StartChar: uni0328
Encoding: 808 808 355
Width: 36
Flags: HW
LayerCount: 2
Fore
SplineSet
22 1 m 29
 20 -3 l 29
 22 -7 l 29
 18 -7 l 29
 16 -3 l 29
 18 1 l 29
 22 1 l 29
EndSplineSet
Validated: 1
EndChar

StartChar: Wgrave
Encoding: 7808 7808 356
Width: 36
Flags: HW
LayerCount: 2
Fore
SplineSet
24 45 m 5
 21 45 l 5
 12 54 l 5
 12 57 l 5
 15 57 l 5
 24 48 l 5
 24 45 l 5
4 41 m 25
 8 41 l 25
 8 7 l 25
 16 15 l 25
 16 21 l 25
 20 21 l 25
 20 15 l 25
 28 7 l 25
 28 41 l 25
 32 41 l 25
 32 1 l 25
 28 1 l 25
 18 11 l 25
 8 1 l 25
 4 1 l 25
 4 41 l 25
EndSplineSet
Validated: 1
EndChar

StartChar: wgrave
Encoding: 7809 7809 357
Width: 36
Flags: HW
LayerCount: 2
Fore
SplineSet
24 29 m 1
 21 29 l 1
 12 38 l 1
 12 41 l 1
 15 41 l 1
 24 32 l 1
 24 29 l 1
4 25 m 29
 8 25 l 29
 8 13 l 29
 12 5 l 29
 16 13 l 29
 16 17 l 29
 20 17 l 29
 20 13 l 29
 24 5 l 29
 28 13 l 29
 28 25 l 29
 32 25 l 29
 32 13 l 29
 26 1 l 29
 22 1 l 29
 18 9 l 29
 14 1 l 29
 10 1 l 29
 4 13 l 29
 4 25 l 29
EndSplineSet
Validated: 1
EndChar

StartChar: wacute
Encoding: 7811 7811 358
Width: 36
Flags: HW
LayerCount: 2
Fore
SplineSet
12 29 m 5
 12 32 l 5
 21 41 l 5
 24 41 l 5
 24 38 l 5
 15 29 l 5
 12 29 l 5
4 25 m 25
 8 25 l 25
 8 13 l 25
 12 5 l 25
 16 13 l 25
 16 17 l 25
 20 17 l 25
 20 13 l 25
 24 5 l 25
 28 13 l 25
 28 25 l 25
 32 25 l 25
 32 13 l 25
 26 1 l 25
 22 1 l 25
 18 9 l 25
 14 1 l 25
 10 1 l 25
 4 13 l 25
 4 25 l 25
EndSplineSet
Validated: 1
EndChar

StartChar: Wacute
Encoding: 7810 7810 359
Width: 36
Flags: HW
LayerCount: 2
Fore
SplineSet
12 45 m 1
 12 48 l 1
 21 57 l 1
 24 57 l 1
 24 54 l 1
 15 45 l 1
 12 45 l 1
4 41 m 25
 8 41 l 25
 8 7 l 25
 16 15 l 25
 16 21 l 25
 20 21 l 25
 20 15 l 25
 28 7 l 25
 28 41 l 25
 32 41 l 25
 32 1 l 25
 28 1 l 25
 18 11 l 25
 8 1 l 25
 4 1 l 25
 4 41 l 25
EndSplineSet
Validated: 1
EndChar

StartChar: Wdieresis
Encoding: 7812 7812 360
Width: 36
Flags: HW
LayerCount: 2
Fore
SplineSet
20 45 m 5
 20 49 l 5
 24 49 l 5
 24 45 l 5
 20 45 l 5
16 45 m 5
 12 45 l 5
 12 49 l 5
 16 49 l 5
 16 45 l 5
4 41 m 25
 8 41 l 25
 8 7 l 25
 16 15 l 25
 16 21 l 25
 20 21 l 25
 20 15 l 25
 28 7 l 25
 28 41 l 25
 32 41 l 25
 32 1 l 25
 28 1 l 25
 18 11 l 25
 8 1 l 25
 4 1 l 25
 4 41 l 25
EndSplineSet
Validated: 1
EndChar

StartChar: wdieresis
Encoding: 7813 7813 361
Width: 36
Flags: HW
LayerCount: 2
Fore
SplineSet
20 29 m 5
 20 33 l 5
 24 33 l 5
 24 29 l 5
 20 29 l 5
16 29 m 5
 12 29 l 5
 12 33 l 5
 16 33 l 5
 16 29 l 5
4 25 m 25
 8 25 l 25
 8 13 l 25
 12 5 l 25
 16 13 l 25
 16 17 l 25
 20 17 l 25
 20 13 l 25
 24 5 l 25
 28 13 l 25
 28 25 l 25
 32 25 l 25
 32 13 l 25
 26 1 l 25
 22 1 l 25
 18 9 l 25
 14 1 l 25
 10 1 l 25
 4 13 l 25
 4 25 l 25
EndSplineSet
Validated: 1
EndChar

StartChar: uni1E9E
Encoding: 7838 7838 362
Width: 36
Flags: HWO
LayerCount: 2
Fore
SplineSet
11 17 m 25
 24 37 l 1
 8 37 l 1
 8 1 l 1
 4 1 l 1
 4 37 l 1
 8 41 l 1
 24 41 l 1
 28 37 l 1
 15 17 l 9
 30 17 l 25
 32 13 l 25
 32 5 l 25
 28 1 l 1
 11 1 l 25
 11 5 l 1
 28 5 l 25
 28 13 l 25
 13 13 l 25
 11 17 l 25
EndSplineSet
Validated: 1
EndChar

StartChar: Ygrave
Encoding: 7922 7922 363
Width: 36
Flags: HW
LayerCount: 2
Fore
SplineSet
12 45 m 5
 12 48 l 5
 21 57 l 5
 24 57 l 5
 24 54 l 5
 15 45 l 5
 12 45 l 5
10 41 m 25
 18 25 l 25
 26 41 l 25
 30 41 l 25
 20 21 l 25
 20 1 l 25
 16 1 l 25
 16 21 l 25
 6 41 l 25
 10 41 l 25
EndSplineSet
Validated: 1
EndChar

StartChar: ygrave
Encoding: 7923 7923 364
Width: 36
Flags: HW
LayerCount: 2
Fore
SplineSet
12 29 m 1
 12 32 l 1
 21 41 l 1
 24 41 l 1
 24 38 l 1
 15 29 l 1
 12 29 l 1
8 25 m 25
 12 25 l 25
 18 13 l 25
 24 25 l 25
 28 25 l 25
 12 -7 l 25
 6 -7 l 25
 6 -3 l 25
 10 -3 l 1
 16 9 l 25
 8 25 l 25
EndSplineSet
Validated: 1
EndChar

StartChar: guilsinglleft
Encoding: 8249 8249 365
Width: 36
Flags: HW
LayerCount: 2
Fore
SplineSet
18 25 m 1
 12 19 l 1
 18 13 l 1
 15 10 l 1
 6 19 l 1
 15 28 l 1
 18 25 l 1
EndSplineSet
Validated: 1
EndChar

StartChar: guilsinglright
Encoding: 8250 8250 366
Width: 36
Flags: HW
LayerCount: 2
Fore
SplineSet
21 28 m 1
 30 19 l 25
 21 10 l 1
 18 13 l 1
 24 19 l 1
 18 25 l 1
 21 28 l 1
EndSplineSet
Validated: 1
EndChar
